<svg xmlns="http://www.w3.org/2000/svg" xmlns:xlink="http://www.w3.org/1999/xlink" width="3088" zoomAndPan="magnify" viewBox="0 0 2316 562.499983" height="750" preserveAspectRatio="xMidYMid meet" version="1.0"><defs><g/><clipPath id="22587c3375"><path d="M 1.027344 0 L 2314.96875 0 L 2314.96875 562 L 1.027344 562 Z M 1.027344 0 " clip-rule="nonzero"/></clipPath></defs><g clip-path="url(#22587c3375)"><path fill="#ffffff" d="M 1.027344 0 L 2314.972656 0 L 2314.972656 1131.496094 L 1.027344 1131.496094 Z M 1.027344 0 " fill-opacity="1" fill-rule="nonzero"/><path fill="#ffffff" d="M 1.027344 0 L 2314.972656 0 L 2314.972656 562 L 1.027344 562 Z M 1.027344 0 " fill-opacity="1" fill-rule="nonzero"/><path fill="#000000" d="M 1.027344 0 L 2314.972656 0 L 2314.972656 562 L 1.027344 562 Z M 1.027344 0 " fill-opacity="1" fill-rule="nonzero"/></g><g fill="#ffffff" fill-opacity="1"><g transform="translate(88.953818, 259.242773)"><g><path d="M 15.375 -117.046875 L 62.03125 -117.046875 C 76.75 -117.046875 88.144531 -113.5625 96.21875 -106.59375 C 104.300781 -99.625 108.34375 -89.785156 108.34375 -77.078125 C 108.34375 -63.816406 104.300781 -53.535156 96.21875 -46.234375 C 88.144531 -38.929688 76.75 -35.28125 62.03125 -35.28125 L 35.109375 -35.28125 L 35.109375 0 L 15.375 0 Z M 35.109375 -99.3125 L 35.109375 -53 L 61.203125 -53 C 80.035156 -53 89.453125 -60.859375 89.453125 -76.578125 C 89.453125 -91.734375 80.035156 -99.3125 61.203125 -99.3125 Z M 35.109375 -99.3125 "/></g></g></g><g fill="#ffffff" fill-opacity="1"><g transform="translate(201.475635, 259.242773)"><g><path d="M 67.546875 0 L 67.546875 -10.875 C 61.191406 -3.0625 51.382812 0.84375 38.125 0.84375 C 28.644531 0.84375 21.0625 -1.75 15.375 -6.9375 C 9.695312 -12.125 6.859375 -18.726562 6.859375 -26.75 C 6.859375 -34.882812 9.8125 -41.347656 15.71875 -46.140625 C 21.625 -50.941406 29.875 -53.394531 40.46875 -53.5 L 67.390625 -53.5 L 67.390625 -56.1875 C 67.390625 -61.863281 65.578125 -66.265625 61.953125 -69.390625 C 58.328125 -72.515625 53.054688 -74.078125 46.140625 -74.078125 C 37.554688 -74.078125 28.804688 -71.066406 19.890625 -65.046875 L 12.03125 -78.421875 C 18.832031 -82.429688 24.9375 -85.300781 30.34375 -87.03125 C 35.75 -88.757812 42.410156 -89.625 50.328125 -89.625 C 61.703125 -89.625 70.507812 -86.863281 76.75 -81.34375 C 82.988281 -75.820312 86.164062 -68.160156 86.28125 -58.359375 L 86.4375 0 Z M 42.140625 -14.375 C 48.929688 -14.375 54.695312 -15.960938 59.4375 -19.140625 C 64.175781 -22.316406 66.828125 -26.359375 67.390625 -31.265625 L 67.390625 -39.453125 L 43.3125 -39.453125 C 36.957031 -39.453125 32.300781 -38.53125 29.34375 -36.6875 C 26.382812 -34.851562 24.90625 -31.820312 24.90625 -27.59375 C 24.90625 -23.570312 26.4375 -20.363281 29.5 -17.96875 C 32.570312 -15.570312 36.785156 -14.375 42.140625 -14.375 Z M 42.140625 -14.375 "/></g></g></g><g fill="#ffffff" fill-opacity="1"><g transform="translate(299.45153, 259.242773)"><g><path d="M 98.984375 -124.0625 L 98.984375 0 L 79.75 0 L 79.75 -15.21875 C 73.175781 -4.507812 62.753906 0.84375 48.484375 0.84375 C 35.773438 0.84375 25.492188 -3.363281 17.640625 -11.78125 C 9.785156 -20.195312 5.859375 -31.207031 5.859375 -44.8125 C 5.859375 -58.1875 9.757812 -69.023438 17.5625 -77.328125 C 25.363281 -85.628906 35.5625 -89.78125 48.15625 -89.78125 C 62.425781 -89.78125 72.957031 -84.375 79.75 -73.5625 L 79.75 -124.0625 Z M 32.859375 -23.328125 C 37.929688 -17.921875 44.476562 -15.21875 52.5 -15.21875 C 60.53125 -15.21875 67.078125 -17.921875 72.140625 -23.328125 C 77.210938 -28.734375 79.75 -35.671875 79.75 -44.140625 C 79.75 -52.722656 77.210938 -59.742188 72.140625 -65.203125 C 67.078125 -70.671875 60.53125 -73.40625 52.5 -73.40625 C 44.476562 -73.40625 37.929688 -70.671875 32.859375 -65.203125 C 27.785156 -59.742188 25.191406 -52.722656 25.078125 -44.140625 C 25.191406 -35.671875 27.785156 -28.734375 32.859375 -23.328125 Z M 32.859375 -23.328125 "/></g></g></g><g fill="#ffffff" fill-opacity="1"><g transform="translate(413.47807, 259.242773)"><g><path d="M 98.984375 -124.0625 L 98.984375 0 L 79.75 0 L 79.75 -15.21875 C 73.175781 -4.507812 62.753906 0.84375 48.484375 0.84375 C 35.773438 0.84375 25.492188 -3.363281 17.640625 -11.78125 C 9.785156 -20.195312 5.859375 -31.207031 5.859375 -44.8125 C 5.859375 -58.1875 9.757812 -69.023438 17.5625 -77.328125 C 25.363281 -85.628906 35.5625 -89.78125 48.15625 -89.78125 C 62.425781 -89.78125 72.957031 -84.375 79.75 -73.5625 L 79.75 -124.0625 Z M 32.859375 -23.328125 C 37.929688 -17.921875 44.476562 -15.21875 52.5 -15.21875 C 60.53125 -15.21875 67.078125 -17.921875 72.140625 -23.328125 C 77.210938 -28.734375 79.75 -35.671875 79.75 -44.140625 C 79.75 -52.722656 77.210938 -59.742188 72.140625 -65.203125 C 67.078125 -70.671875 60.53125 -73.40625 52.5 -73.40625 C 44.476562 -73.40625 37.929688 -70.671875 32.859375 -65.203125 C 27.785156 -59.742188 25.191406 -52.722656 25.078125 -44.140625 C 25.191406 -35.671875 27.785156 -28.734375 32.859375 -23.328125 Z M 32.859375 -23.328125 "/></g></g></g><g fill="#ffffff" fill-opacity="1"><g transform="translate(527.504625, 259.242773)"><g><path d="M 15.71875 -122.8125 C 17.832031 -124.988281 20.503906 -126.078125 23.734375 -126.078125 C 26.972656 -126.078125 29.648438 -124.988281 31.765625 -122.8125 C 33.890625 -120.632812 34.953125 -117.816406 34.953125 -114.359375 C 34.953125 -111.015625 33.890625 -108.253906 31.765625 -106.078125 C 29.648438 -103.910156 26.972656 -102.828125 23.734375 -102.828125 C 20.503906 -102.828125 17.832031 -103.910156 15.71875 -106.078125 C 13.601562 -108.253906 12.546875 -111.015625 12.546875 -114.359375 C 12.546875 -117.816406 13.601562 -120.632812 15.71875 -122.8125 Z M 33.265625 0 L 14.21875 0 L 14.21875 -88.953125 L 33.265625 -88.953125 Z M 33.265625 0 "/></g></g></g><g fill="#ffffff" fill-opacity="1"><g transform="translate(574.987812, 259.242773)"><g><path d="M 66.21875 -89.625 C 76.582031 -89.625 84.6875 -86.582031 90.53125 -80.5 C 96.382812 -74.425781 99.3125 -66.039062 99.3125 -55.34375 L 99.3125 0 L 80.09375 0 L 80.09375 -50 C 80.09375 -56.6875 78.195312 -61.953125 74.40625 -65.796875 C 70.613281 -69.640625 65.375 -71.5625 58.6875 -71.5625 C 51.550781 -71.445312 45.722656 -69.160156 41.203125 -64.703125 C 36.691406 -60.242188 34.101562 -54.445312 33.4375 -47.3125 L 33.4375 0 L 14.21875 0 L 14.21875 -88.953125 L 33.4375 -88.953125 L 33.4375 -71.890625 C 39.457031 -83.710938 50.382812 -89.625 66.21875 -89.625 Z M 66.21875 -89.625 "/></g></g></g><g fill="#ffffff" fill-opacity="1"><g transform="translate(685.837646, 259.242773)"><g><path d="M 94.46875 -88.953125 L 94.46875 -8.6875 C 94.46875 4.007812 90.285156 14.117188 81.921875 21.640625 C 73.566406 29.171875 62.367188 32.9375 48.328125 32.9375 C 35.171875 32.9375 22.851562 29.035156 11.375 21.234375 L 19.5625 7.359375 C 28.257812 13.828125 37.566406 17.0625 47.484375 17.0625 C 55.953125 17.0625 62.722656 14.773438 67.796875 10.203125 C 72.867188 5.628906 75.40625 -0.5 75.40625 -8.1875 L 75.40625 -19.390625 C 69.164062 -9.359375 59.359375 -4.34375 45.984375 -4.34375 C 33.941406 -4.34375 24.242188 -8.300781 16.890625 -16.21875 C 9.535156 -24.132812 5.859375 -34.5 5.859375 -47.3125 C 5.859375 -59.914062 9.476562 -70.085938 16.71875 -77.828125 C 23.96875 -85.578125 33.5 -89.507812 45.3125 -89.625 C 58.90625 -89.726562 68.9375 -84.710938 75.40625 -74.578125 L 75.40625 -88.953125 Z M 49.828125 -19.390625 C 57.296875 -19.390625 63.425781 -21.953125 68.21875 -27.078125 C 73.007812 -32.210938 75.40625 -38.789062 75.40625 -46.8125 C 75.40625 -54.84375 73.035156 -61.394531 68.296875 -66.46875 C 63.566406 -71.539062 57.410156 -74.078125 49.828125 -74.078125 C 42.242188 -74.078125 36.054688 -71.539062 31.265625 -66.46875 C 26.472656 -61.394531 24.019531 -54.84375 23.90625 -46.8125 C 24.019531 -38.789062 26.445312 -32.210938 31.1875 -27.078125 C 35.925781 -21.953125 42.140625 -19.390625 49.828125 -19.390625 Z M 49.828125 -19.390625 "/></g></g></g><g fill="#ffffff" fill-opacity="1"><g transform="translate(792.842042, 259.242773)"><g><path d="M 59.6875 -20.40625 L 64.546875 -5.6875 C 57.179688 -1.332031 49.875 0.84375 42.625 0.84375 C 35.382812 0.84375 29.421875 -1.328125 24.734375 -5.671875 C 20.054688 -10.023438 17.71875 -16.492188 17.71875 -25.078125 L 17.71875 -71.234375 L 5.1875 -71.234375 L 5.1875 -85.609375 L 17.71875 -85.609375 L 17.71875 -110.015625 L 36.78125 -110.015625 L 36.78125 -85.609375 L 63.03125 -85.609375 L 63.03125 -71.234375 L 36.78125 -71.234375 L 36.78125 -28.59375 C 36.78125 -24.132812 37.5625 -21.007812 39.125 -19.21875 C 40.6875 -17.4375 43.082031 -16.546875 46.3125 -16.546875 C 49.882812 -16.546875 54.34375 -17.832031 59.6875 -20.40625 Z M 59.6875 -20.40625 "/></g></g></g><g fill="#ffffff" fill-opacity="1"><g transform="translate(860.890177, 259.242773)"><g><path d="M 52.328125 -89.625 C 66.046875 -89.625 77.195312 -85.46875 85.78125 -77.15625 C 94.363281 -68.851562 98.65625 -57.957031 98.65625 -44.46875 C 98.65625 -31.09375 94.363281 -20.222656 85.78125 -11.859375 C 77.195312 -3.503906 66.046875 0.671875 52.328125 0.671875 C 38.503906 0.671875 27.300781 -3.503906 18.71875 -11.859375 C 10.144531 -20.222656 5.859375 -31.09375 5.859375 -44.46875 C 5.859375 -57.957031 10.144531 -68.851562 18.71875 -77.15625 C 27.300781 -85.46875 38.503906 -89.625 52.328125 -89.625 Z M 52.328125 -73.0625 C 44.304688 -73.0625 37.757812 -70.382812 32.6875 -65.03125 C 27.613281 -59.6875 25.078125 -52.78125 25.078125 -44.3125 C 25.078125 -35.726562 27.613281 -28.757812 32.6875 -23.40625 C 37.757812 -18.050781 44.304688 -15.375 52.328125 -15.375 C 60.359375 -15.375 66.878906 -18.050781 71.890625 -23.40625 C 76.910156 -28.757812 79.421875 -35.726562 79.421875 -44.3125 C 79.421875 -52.78125 76.882812 -59.6875 71.8125 -65.03125 C 66.738281 -70.382812 60.242188 -73.0625 52.328125 -73.0625 Z M 52.328125 -73.0625 "/></g></g></g><g fill="#ffffff" fill-opacity="1"><g transform="translate(965.386628, 259.242773)"><g><path d="M 66.21875 -89.625 C 76.582031 -89.625 84.6875 -86.582031 90.53125 -80.5 C 96.382812 -74.425781 99.3125 -66.039062 99.3125 -55.34375 L 99.3125 0 L 80.09375 0 L 80.09375 -50 C 80.09375 -56.6875 78.195312 -61.953125 74.40625 -65.796875 C 70.613281 -69.640625 65.375 -71.5625 58.6875 -71.5625 C 51.550781 -71.445312 45.722656 -69.160156 41.203125 -64.703125 C 36.691406 -60.242188 34.101562 -54.445312 33.4375 -47.3125 L 33.4375 0 L 14.21875 0 L 14.21875 -88.953125 L 33.4375 -88.953125 L 33.4375 -71.890625 C 39.457031 -83.710938 50.382812 -89.625 66.21875 -89.625 Z M 66.21875 -89.625 "/></g></g></g><g fill="#ffffff" fill-opacity="1"><g transform="translate(1076.236461, 259.242773)"><g/></g></g><g fill="#ffffff" fill-opacity="1"><g transform="translate(1119.372653, 259.242773)"><g><path d="M 95.3125 -99.3125 L 58.1875 -99.3125 L 58.1875 0 L 38.453125 0 L 38.453125 -99.3125 L 1.5 -99.3125 L 1.5 -117.046875 L 95.3125 -117.046875 Z M 95.3125 -99.3125 "/></g></g></g><g fill="#ffffff" fill-opacity="1"><g transform="translate(1216.178229, 259.242773)"><g><path d="M 52.328125 -89.625 C 66.046875 -89.625 77.195312 -85.46875 85.78125 -77.15625 C 94.363281 -68.851562 98.65625 -57.957031 98.65625 -44.46875 C 98.65625 -31.09375 94.363281 -20.222656 85.78125 -11.859375 C 77.195312 -3.503906 66.046875 0.671875 52.328125 0.671875 C 38.503906 0.671875 27.300781 -3.503906 18.71875 -11.859375 C 10.144531 -20.222656 5.859375 -31.09375 5.859375 -44.46875 C 5.859375 -57.957031 10.144531 -68.851562 18.71875 -77.15625 C 27.300781 -85.46875 38.503906 -89.625 52.328125 -89.625 Z M 52.328125 -73.0625 C 44.304688 -73.0625 37.757812 -70.382812 32.6875 -65.03125 C 27.613281 -59.6875 25.078125 -52.78125 25.078125 -44.3125 C 25.078125 -35.726562 27.613281 -28.757812 32.6875 -23.40625 C 37.757812 -18.050781 44.304688 -15.375 52.328125 -15.375 C 60.359375 -15.375 66.878906 -18.050781 71.890625 -23.40625 C 76.910156 -28.757812 79.421875 -35.726562 79.421875 -44.3125 C 79.421875 -52.78125 76.882812 -59.6875 71.8125 -65.03125 C 66.738281 -70.382812 60.242188 -73.0625 52.328125 -73.0625 Z M 52.328125 -73.0625 "/></g></g></g><g fill="#ffffff" fill-opacity="1"><g transform="translate(1320.674679, 259.242773)"><g><path d="M 67.546875 0 L 67.546875 -10.875 C 61.191406 -3.0625 51.382812 0.84375 38.125 0.84375 C 28.644531 0.84375 21.0625 -1.75 15.375 -6.9375 C 9.695312 -12.125 6.859375 -18.726562 6.859375 -26.75 C 6.859375 -34.882812 9.8125 -41.347656 15.71875 -46.140625 C 21.625 -50.941406 29.875 -53.394531 40.46875 -53.5 L 67.390625 -53.5 L 67.390625 -56.1875 C 67.390625 -61.863281 65.578125 -66.265625 61.953125 -69.390625 C 58.328125 -72.515625 53.054688 -74.078125 46.140625 -74.078125 C 37.554688 -74.078125 28.804688 -71.066406 19.890625 -65.046875 L 12.03125 -78.421875 C 18.832031 -82.429688 24.9375 -85.300781 30.34375 -87.03125 C 35.75 -88.757812 42.410156 -89.625 50.328125 -89.625 C 61.703125 -89.625 70.507812 -86.863281 76.75 -81.34375 C 82.988281 -75.820312 86.164062 -68.160156 86.28125 -58.359375 L 86.4375 0 Z M 42.140625 -14.375 C 48.929688 -14.375 54.695312 -15.960938 59.4375 -19.140625 C 64.175781 -22.316406 66.828125 -26.359375 67.390625 -31.265625 L 67.390625 -39.453125 L 43.3125 -39.453125 C 36.957031 -39.453125 32.300781 -38.53125 29.34375 -36.6875 C 26.382812 -34.851562 24.90625 -31.820312 24.90625 -27.59375 C 24.90625 -23.570312 26.4375 -20.363281 29.5 -17.96875 C 32.570312 -15.570312 36.785156 -14.375 42.140625 -14.375 Z M 42.140625 -14.375 "/></g></g></g><g fill="#ffffff" fill-opacity="1"><g transform="translate(1418.65053, 259.242773)"><g><path d="M 40.796875 -89.78125 C 53.054688 -89.78125 63.421875 -86.773438 71.890625 -80.765625 L 64.875 -66.546875 C 56.40625 -71.785156 47.878906 -74.40625 39.296875 -74.40625 C 30.597656 -74.40625 26.25 -71.453125 26.25 -65.546875 C 26.25 -62.648438 27.863281 -60.253906 31.09375 -58.359375 C 34.332031 -56.460938 38.265625 -54.875 42.890625 -53.59375 C 47.515625 -52.3125 52.140625 -50.804688 56.765625 -49.078125 C 61.390625 -47.347656 65.316406 -44.53125 68.546875 -40.625 C 71.785156 -36.726562 73.40625 -31.769531 73.40625 -25.75 C 73.40625 -17.164062 70.144531 -10.613281 63.625 -6.09375 C 57.101562 -1.582031 48.992188 0.671875 39.296875 0.671875 C 32.609375 0.671875 26.054688 -0.414062 19.640625 -2.59375 C 13.234375 -4.769531 7.859375 -7.804688 3.515625 -11.703125 L 10.359375 -25.421875 C 14.148438 -22.078125 18.804688 -19.398438 24.328125 -17.390625 C 29.847656 -15.378906 35.113281 -14.375 40.125 -14.375 C 44.476562 -14.375 47.988281 -15.15625 50.65625 -16.71875 C 53.332031 -18.28125 54.671875 -20.675781 54.671875 -23.90625 C 54.671875 -27.25 53.054688 -29.925781 49.828125 -31.9375 C 46.597656 -33.945312 42.695312 -35.5625 38.125 -36.78125 C 33.550781 -38.007812 28.976562 -39.457031 24.40625 -41.125 C 19.84375 -42.800781 15.972656 -45.5625 12.796875 -49.40625 C 9.617188 -53.25 8.03125 -58.125 8.03125 -64.03125 C 8.03125 -72.507812 11.175781 -78.921875 17.46875 -83.265625 C 23.769531 -87.609375 31.546875 -89.78125 40.796875 -89.78125 Z M 40.796875 -89.78125 "/></g></g></g><g fill="#ffffff" fill-opacity="1"><g transform="translate(1497.231918, 259.242773)"><g><path d="M 59.6875 -20.40625 L 64.546875 -5.6875 C 57.179688 -1.332031 49.875 0.84375 42.625 0.84375 C 35.382812 0.84375 29.421875 -1.328125 24.734375 -5.671875 C 20.054688 -10.023438 17.71875 -16.492188 17.71875 -25.078125 L 17.71875 -71.234375 L 5.1875 -71.234375 L 5.1875 -85.609375 L 17.71875 -85.609375 L 17.71875 -110.015625 L 36.78125 -110.015625 L 36.78125 -85.609375 L 63.03125 -85.609375 L 63.03125 -71.234375 L 36.78125 -71.234375 L 36.78125 -28.59375 C 36.78125 -24.132812 37.5625 -21.007812 39.125 -19.21875 C 40.6875 -17.4375 43.082031 -16.546875 46.3125 -16.546875 C 49.882812 -16.546875 54.34375 -17.832031 59.6875 -20.40625 Z M 59.6875 -20.40625 "/></g></g></g><g fill="#ffffff" fill-opacity="1"><g transform="translate(1565.279993, 259.242773)"><g><path d="M 130.25 -89.625 C 140.394531 -89.625 148.363281 -86.554688 154.15625 -80.421875 C 159.957031 -74.296875 162.859375 -65.9375 162.859375 -55.34375 L 162.859375 0 L 143.625 0 L 143.625 -50 C 143.625 -56.789062 141.753906 -62.109375 138.015625 -65.953125 C 134.285156 -69.804688 129.132812 -71.734375 122.5625 -71.734375 C 115.09375 -71.503906 109.15625 -68.796875 104.75 -63.609375 C 100.34375 -58.429688 98.140625 -51.882812 98.140625 -43.96875 L 98.140625 0 L 78.921875 0 L 78.921875 -50 C 78.921875 -56.789062 77.050781 -62.109375 73.3125 -65.953125 C 69.582031 -69.804688 64.484375 -71.734375 58.015625 -71.734375 C 50.441406 -71.503906 44.421875 -68.796875 39.953125 -63.609375 C 35.492188 -58.429688 33.265625 -51.882812 33.265625 -43.96875 L 33.265625 0 L 14.21875 0 L 14.21875 -88.953125 L 33.265625 -88.953125 L 33.265625 -71.734375 C 39.179688 -83.660156 49.941406 -89.625 65.546875 -89.625 C 73.460938 -89.625 80.066406 -87.753906 85.359375 -84.015625 C 90.648438 -80.285156 94.351562 -75.019531 96.46875 -68.21875 C 101.9375 -82.488281 113.195312 -89.625 130.25 -89.625 Z M 130.25 -89.625 "/></g></g></g><g fill="#ffffff" fill-opacity="1"><g transform="translate(1739.66378, 259.242773)"><g><path d="M 67.546875 0 L 67.546875 -10.875 C 61.191406 -3.0625 51.382812 0.84375 38.125 0.84375 C 28.644531 0.84375 21.0625 -1.75 15.375 -6.9375 C 9.695312 -12.125 6.859375 -18.726562 6.859375 -26.75 C 6.859375 -34.882812 9.8125 -41.347656 15.71875 -46.140625 C 21.625 -50.941406 29.875 -53.394531 40.46875 -53.5 L 67.390625 -53.5 L 67.390625 -56.1875 C 67.390625 -61.863281 65.578125 -66.265625 61.953125 -69.390625 C 58.328125 -72.515625 53.054688 -74.078125 46.140625 -74.078125 C 37.554688 -74.078125 28.804688 -71.066406 19.890625 -65.046875 L 12.03125 -78.421875 C 18.832031 -82.429688 24.9375 -85.300781 30.34375 -87.03125 C 35.75 -88.757812 42.410156 -89.625 50.328125 -89.625 C 61.703125 -89.625 70.507812 -86.863281 76.75 -81.34375 C 82.988281 -75.820312 86.164062 -68.160156 86.28125 -58.359375 L 86.4375 0 Z M 42.140625 -14.375 C 48.929688 -14.375 54.695312 -15.960938 59.4375 -19.140625 C 64.175781 -22.316406 66.828125 -26.359375 67.390625 -31.265625 L 67.390625 -39.453125 L 43.3125 -39.453125 C 36.957031 -39.453125 32.300781 -38.53125 29.34375 -36.6875 C 26.382812 -34.851562 24.90625 -31.820312 24.90625 -27.59375 C 24.90625 -23.570312 26.4375 -20.363281 29.5 -17.96875 C 32.570312 -15.570312 36.785156 -14.375 42.140625 -14.375 Z M 42.140625 -14.375 "/></g></g></g><g fill="#ffffff" fill-opacity="1"><g transform="translate(1837.63963, 259.242773)"><g><path d="M 40.796875 -89.78125 C 53.054688 -89.78125 63.421875 -86.773438 71.890625 -80.765625 L 64.875 -66.546875 C 56.40625 -71.785156 47.878906 -74.40625 39.296875 -74.40625 C 30.597656 -74.40625 26.25 -71.453125 26.25 -65.546875 C 26.25 -62.648438 27.863281 -60.253906 31.09375 -58.359375 C 34.332031 -56.460938 38.265625 -54.875 42.890625 -53.59375 C 47.515625 -52.3125 52.140625 -50.804688 56.765625 -49.078125 C 61.390625 -47.347656 65.316406 -44.53125 68.546875 -40.625 C 71.785156 -36.726562 73.40625 -31.769531 73.40625 -25.75 C 73.40625 -17.164062 70.144531 -10.613281 63.625 -6.09375 C 57.101562 -1.582031 48.992188 0.671875 39.296875 0.671875 C 32.609375 0.671875 26.054688 -0.414062 19.640625 -2.59375 C 13.234375 -4.769531 7.859375 -7.804688 3.515625 -11.703125 L 10.359375 -25.421875 C 14.148438 -22.078125 18.804688 -19.398438 24.328125 -17.390625 C 29.847656 -15.378906 35.113281 -14.375 40.125 -14.375 C 44.476562 -14.375 47.988281 -15.15625 50.65625 -16.71875 C 53.332031 -18.28125 54.671875 -20.675781 54.671875 -23.90625 C 54.671875 -27.25 53.054688 -29.925781 49.828125 -31.9375 C 46.597656 -33.945312 42.695312 -35.5625 38.125 -36.78125 C 33.550781 -38.007812 28.976562 -39.457031 24.40625 -41.125 C 19.84375 -42.800781 15.972656 -45.5625 12.796875 -49.40625 C 9.617188 -53.25 8.03125 -58.125 8.03125 -64.03125 C 8.03125 -72.507812 11.175781 -78.921875 17.46875 -83.265625 C 23.769531 -87.609375 31.546875 -89.78125 40.796875 -89.78125 Z M 40.796875 -89.78125 "/></g></g></g><g fill="#ffffff" fill-opacity="1"><g transform="translate(1916.221019, 259.242773)"><g><path d="M 59.6875 -20.40625 L 64.546875 -5.6875 C 57.179688 -1.332031 49.875 0.84375 42.625 0.84375 C 35.382812 0.84375 29.421875 -1.328125 24.734375 -5.671875 C 20.054688 -10.023438 17.71875 -16.492188 17.71875 -25.078125 L 17.71875 -71.234375 L 5.1875 -71.234375 L 5.1875 -85.609375 L 17.71875 -85.609375 L 17.71875 -110.015625 L 36.78125 -110.015625 L 36.78125 -85.609375 L 63.03125 -85.609375 L 63.03125 -71.234375 L 36.78125 -71.234375 L 36.78125 -28.59375 C 36.78125 -24.132812 37.5625 -21.007812 39.125 -19.21875 C 40.6875 -17.4375 43.082031 -16.546875 46.3125 -16.546875 C 49.882812 -16.546875 54.34375 -17.832031 59.6875 -20.40625 Z M 59.6875 -20.40625 "/></g></g></g><g fill="#ffffff" fill-opacity="1"><g transform="translate(1984.269094, 259.242773)"><g><path d="M 50.828125 -89.625 C 66.097656 -89.625 77.160156 -85.023438 84.015625 -75.828125 C 90.867188 -66.628906 93.6875 -53.726562 92.46875 -37.125 L 25.25 -37.125 C 26.8125 -30.207031 30.039062 -24.769531 34.9375 -20.8125 C 39.84375 -16.851562 45.8125 -14.875 52.84375 -14.875 C 62.875 -14.875 71.234375 -18.332031 77.921875 -25.25 L 88.109375 -14.375 C 78.972656 -4.34375 66.710938 0.671875 51.328125 0.671875 C 37.617188 0.671875 26.613281 -3.476562 18.3125 -11.78125 C 10.007812 -20.09375 5.859375 -30.9375 5.859375 -44.3125 C 5.859375 -57.6875 10.035156 -68.550781 18.390625 -76.90625 C 26.753906 -85.269531 37.566406 -89.507812 50.828125 -89.625 Z M 24.90625 -51.171875 L 75.75 -51.171875 C 75.40625 -58.296875 73.003906 -63.921875 68.546875 -68.046875 C 64.085938 -72.171875 58.238281 -74.234375 51 -74.234375 C 43.976562 -74.234375 38.148438 -72.171875 33.515625 -68.046875 C 28.890625 -63.921875 26.019531 -58.296875 24.90625 -51.171875 Z M 24.90625 -51.171875 "/></g></g></g><g fill="#ffffff" fill-opacity="1"><g transform="translate(2082.579377, 259.242773)"><g><path d="M 33.4375 -88.953125 L 33.4375 -71.234375 C 39.570312 -83.492188 49.828125 -89.625 64.203125 -89.625 L 64.203125 -71.234375 C 55.398438 -71.671875 48.265625 -69.601562 42.796875 -65.03125 C 37.335938 -60.46875 34.21875 -54.285156 33.4375 -46.484375 L 33.4375 0 L 14.21875 0 L 14.21875 -88.953125 Z M 33.4375 -88.953125 "/></g></g></g><g fill="#ffffff" fill-opacity="1"><g transform="translate(2148.453999, 259.242773)"><g><path d="M 40.796875 -89.78125 C 53.054688 -89.78125 63.421875 -86.773438 71.890625 -80.765625 L 64.875 -66.546875 C 56.40625 -71.785156 47.878906 -74.40625 39.296875 -74.40625 C 30.597656 -74.40625 26.25 -71.453125 26.25 -65.546875 C 26.25 -62.648438 27.863281 -60.253906 31.09375 -58.359375 C 34.332031 -56.460938 38.265625 -54.875 42.890625 -53.59375 C 47.515625 -52.3125 52.140625 -50.804688 56.765625 -49.078125 C 61.390625 -47.347656 65.316406 -44.53125 68.546875 -40.625 C 71.785156 -36.726562 73.40625 -31.769531 73.40625 -25.75 C 73.40625 -17.164062 70.144531 -10.613281 63.625 -6.09375 C 57.101562 -1.582031 48.992188 0.671875 39.296875 0.671875 C 32.609375 0.671875 26.054688 -0.414062 19.640625 -2.59375 C 13.234375 -4.769531 7.859375 -7.804688 3.515625 -11.703125 L 10.359375 -25.421875 C 14.148438 -22.078125 18.804688 -19.398438 24.328125 -17.390625 C 29.847656 -15.378906 35.113281 -14.375 40.125 -14.375 C 44.476562 -14.375 47.988281 -15.15625 50.65625 -16.71875 C 53.332031 -18.28125 54.671875 -20.675781 54.671875 -23.90625 C 54.671875 -27.25 53.054688 -29.925781 49.828125 -31.9375 C 46.597656 -33.945312 42.695312 -35.5625 38.125 -36.78125 C 33.550781 -38.007812 28.976562 -39.457031 24.40625 -41.125 C 19.84375 -42.800781 15.972656 -45.5625 12.796875 -49.40625 C 9.617188 -53.25 8.03125 -58.125 8.03125 -64.03125 C 8.03125 -72.507812 11.175781 -78.921875 17.46875 -83.265625 C 23.769531 -87.609375 31.546875 -89.78125 40.796875 -89.78125 Z M 40.796875 -89.78125 "/></g></g></g><g fill="#ffffff" fill-opacity="1"><g transform="translate(894.452248, 436.320542)"><g><path d="M 78.421875 -40.351562 C 78.941406 -49.414062 79.464844 -58.476562 79.980469 -67.644531 C 80.75 -78.027344 81.625 -88.417969 82.28125 -98.792969 C 82.480469 -100.871094 82.453125 -103.046875 82.316406 -105.214844 C 82.160156 -107.707031 80.902344 -108.714844 78.402344 -108.667969 C 76.335938 -108.648438 74.542969 -107.773438 73.230469 -106.171875 C 71.304688 -103.875 69.382812 -101.578125 67.679688 -99.1875 C 56.097656 -82.582031 46.429688 -64.902344 38.789062 -46.148438 C 35.386719 -37.886719 32.101562 -29.523438 28.808594 -21.269531 C 27.960938 -19.148438 26.855469 -17.664062 24.632812 -16.65625 C 21.675781 -15.277344 18.726562 -13.679688 15.898438 -11.976562 C 12.746094 -10.148438 9.71875 -8.113281 6.800781 -6.082031 C 5.859375 -5.476562 4.824219 -4.652344 5.242188 -3.15625 C 7.078125 -1.636719 9.144531 -1.65625 11.261719 -2.550781 C 14.65625 -3.960938 17.820312 -5.570312 21.207031 -7.085938 C 21.84375 -7.34375 22.609375 -7.285156 23.679688 -7.566406 C 23.148438 -5.578125 22.6875 -4.242188 22.234375 -2.800781 C 20.746094 2.949219 19.035156 8.710938 17.761719 14.449219 C 17.070312 17.320312 16.933594 20.375 16.683594 23.328125 C 16.625 24.09375 16.792969 25.0625 17.265625 25.683594 C 17.625 26.207031 18.527344 26.695312 19.285156 26.648438 C 19.726562 26.726562 20.441406 26.03125 20.632812 25.582031 C 21.152344 23.484375 21.234375 21.304688 21.972656 19.191406 C 24.96875 9.648438 28.179688 0.09375 31.277344 -9.566406 C 32.007812 -11.785156 33.34375 -13.066406 35.464844 -13.960938 C 45.527344 -18.285156 55.476562 -22.714844 65.542969 -27.039062 C 66.5 -27.425781 67.683594 -27.609375 68.964844 -28.015625 C 69.070312 -26.28125 69.273438 -24.769531 69.253906 -23.355469 C 69.097656 -18.886719 69.050781 -14.421875 68.894531 -9.953125 C 68.402344 3.132812 68.457031 16.183594 69.699219 29.160156 C 70.042969 32.945312 70.714844 36.710938 71.382812 40.476562 C 71.703125 42.089844 72.238281 43.6875 72.980469 45.164062 C 73.863281 47.066406 75.460938 48.273438 77.632812 48.246094 C 79.921875 48.320312 81.71875 47.449219 82.863281 44.875 C 81.433594 44.636719 80.222656 44.386719 78.894531 44.035156 C 78.609375 42.964844 78.339844 42.109375 78.171875 41.140625 C 76.878906 34.371094 76.460938 27.652344 76.582031 20.898438 C 76.890625 6.628906 77.203125 -7.53125 77.617188 -21.808594 C 77.632812 -25.074219 77.972656 -28.359375 78.203125 -31.636719 C 86.1875 -34.417969 93.625 -37.277344 101.710938 -38.433594 C 101.664062 -39.191406 101.636719 -39.625 101.496094 -40.160156 C 101.359375 -40.585938 101.007812 -41 100.65625 -41.414062 C 93.203125 -42.253906 86.425781 -39.328125 78.792969 -37.875 C 78.609375 -39.058594 78.460938 -39.703125 78.421875 -40.351562 Z M 75.199219 -99.003906 C 75.21875 -93.457031 74.226562 -88.390625 73.679688 -83.246094 C 73.144531 -77.882812 72.613281 -72.410156 72.1875 -67.050781 C 71.652344 -61.6875 71.214844 -56.4375 70.78125 -51.191406 C 70.347656 -45.941406 70.128906 -40.707031 69.722656 -35.023438 C 64.417969 -32.84375 58.859375 -31.300781 53.441406 -29.222656 C 48.128906 -27.152344 42.820312 -25.078125 37.292969 -22.996094 C 39.828125 -36.425781 65.261719 -87.398438 75.199219 -99.003906 Z M 75.199219 -99.003906 "/></g></g></g><g fill="#ffffff" fill-opacity="1"><g transform="translate(1008.556309, 429.206673)"><g/></g></g><g fill="#ffffff" fill-opacity="1"><g transform="translate(1054.610115, 426.335428)"><g><path d="M 62.75 -87.566406 C 65.085938 -90.214844 66.523438 -93.351562 67.171875 -96.871094 C 68.210938 -102.921875 64.328125 -107.574219 58.011719 -107.722656 C 53.871094 -107.792969 50.277344 -106.152344 47.296875 -103.355469 C 44.011719 -100.214844 41.292969 -96.671875 38.917969 -92.933594 C 34.757812 -86.367188 31.050781 -79.5 28.015625 -72.347656 C 17.453125 -48.082031 10.324219 -22.835938 5.519531 3.027344 C 4.53125 8.09375 4.089844 13.234375 4.847656 18.410156 C 5.488281 23.480469 8.007812 25.5 13.230469 25.5 C 16.597656 25.398438 19.792969 24.332031 22.496094 22.3125 C 25.191406 20.1875 27.878906 17.953125 30.222656 15.414062 C 33.683594 11.605469 36.917969 7.597656 40.039062 3.59375 C 47.46875 -6.332031 54.441406 -16.664062 60.28125 -27.691406 C 61.34375 -29.824219 62.625 -31.972656 63.207031 -34.835938 C 62.132812 -34.660156 61.140625 -34.816406 60.621094 -34.457031 C 59.792969 -33.753906 59.097656 -32.730469 58.390625 -31.816406 C 56.398438 -28.863281 54.414062 -25.800781 52.320312 -22.734375 C 44.457031 -11.039062 36.363281 0.453125 26.777344 10.730469 C 23.613281 14.082031 19.992188 17.03125 16.589844 20.070312 C 15.863281 20.660156 14.898438 20.828125 14.050781 21.207031 C 12.398438 17.394531 12.011719 16.4375 12.25 13.269531 C 12.515625 8.792969 12.78125 4.316406 13.484375 -0.078125 C 17.058594 -21.296875 22.730469 -41.992188 30.5 -62.167969 C 34.160156 -71.535156 38.257812 -80.820312 43.710938 -89.316406 C 46.082031 -93.164062 48.804688 -96.597656 51.628906 -100.144531 C 52.945312 -101.75 54.476562 -103.371094 56.738281 -103.726562 C 58.742188 -102.984375 59.609375 -101.296875 59.933594 -99.574219 C 60.386719 -97.539062 60.523438 -95.371094 60.546875 -93.195312 C 60.566406 -91.128906 60.160156 -88.929688 59.707031 -85.746094 C 61.285156 -86.605469 62.246094 -86.882812 62.75 -87.566406 Z M 62.75 -87.566406 "/></g></g></g><g fill="#ffffff" fill-opacity="1"><g transform="translate(1125.044989, 421.944135)"><g><path d="M 8.789062 -26.546875 C 13.78125 -47.636719 19.996094 -68.367188 26.757812 -89.023438 C 28.953125 -95.6875 31.699219 -102.277344 34.109375 -108.953125 C 34.300781 -109.398438 34.15625 -109.933594 34.234375 -110.484375 C 31.679688 -111.304688 29.90625 -110.105469 28.828125 -108.1875 C 27.359375 -105.59375 26.003906 -102.898438 24.871094 -100.109375 C 15.777344 -78.4375 8.683594 -56.128906 2.375 -33.4375 C -0.015625 -24.691406 -2.292969 -15.847656 -3.03125 -6.773438 C -3.242188 -3.171875 -3.230469 0.527344 -2.683594 4.082031 C -1.90625 9.582031 1.324219 12.535156 6.8125 13.28125 C 8.78125 13.484375 10.855469 13.574219 12.667969 13.027344 C 23.382812 10.398438 30.015625 3.351562 33.851562 -6.679688 C 33.84375 -6.789062 33.722656 -6.996094 33.714844 -7.105469 C 32.570312 -8.015625 31.390625 -7.722656 30.585938 -6.695312 C 29.671875 -5.65625 28.886719 -4.304688 28.09375 -3.058594 C 25.402344 0.917969 22.140625 4.386719 17.953125 7.039062 C 16.488281 8 14.808594 8.976562 13.210938 9.511719 C 9.488281 10.832031 7.570312 9.753906 6.265625 6.246094 C 5.09375 3.164062 5.011719 0.121094 5.140625 -3.039062 C 5.398438 -11.105469 6.878906 -18.8125 8.789062 -26.546875 Z M 8.789062 -26.546875 "/></g></g></g><g fill="#ffffff" fill-opacity="1"><g transform="translate(1175.10812, 418.822927)"><g><path d="M 42.65625 -18.976562 C 39.359375 -16.050781 36.066406 -13.019531 32.773438 -9.984375 C 32.152344 -9.511719 31.542969 -8.820312 30.527344 -9.410156 C 30.28125 -9.828125 30.039062 -10.25 30.011719 -10.683594 C 29.921875 -12.089844 29.84375 -13.390625 29.871094 -14.699219 C 29.882812 -17.964844 30.109375 -21.347656 30.011719 -24.605469 C 29.980469 -26.890625 28.828125 -27.90625 26.640625 -28.09375 C 24.570312 -28.183594 22.636719 -27.738281 21.214844 -26.125 C 20.097656 -24.859375 19.089844 -23.601562 18.085938 -22.230469 C 15.59375 -18.59375 13.105469 -14.851562 10.507812 -11.207031 C 8.804688 -8.816406 6.773438 -6.515625 4.84375 -4.328125 C 4.4375 -3.867188 3.578125 -3.703125 2.40625 -3.304688 C 2.519531 -4.945312 2.34375 -6.019531 2.601562 -7.125 C 3.46875 -12.398438 4.453125 -17.574219 5.328125 -22.742188 C 5.632812 -24.828125 6.371094 -26.941406 5.699219 -28.964844 C 3.695312 -29.710938 2.78125 -28.675781 2.320312 -27.339844 C -0.390625 -20.210938 -2.4375 -12.902344 -3.269531 -5.34375 C -3.671875 -1.292969 -1.707031 0.542969 2.398438 0.0664062 C 3.800781 -0.128906 5.304688 -0.4375 6.5625 -1.171875 C 8.242188 -2.144531 9.910156 -3.335938 11.230469 -4.832031 C 14.175781 -8.171875 16.894531 -11.714844 19.722656 -15.152344 C 20.53125 -16.183594 21.226562 -17.207031 22.746094 -19.042969 C 22.671875 -16.753906 22.644531 -15.445312 22.71875 -14.253906 C 22.695312 -12.835938 22.667969 -11.53125 22.859375 -10.238281 C 23.5625 -5.929688 26.40625 -3.929688 30.703125 -4.851562 C 31.988281 -5.148438 33.261719 -5.664062 34.304688 -6.382812 C 39.28125 -10.28125 43.6875 -14.691406 47.046875 -20.121094 C 47.34375 -20.574219 47.304688 -21.226562 47.351562 -22.207031 C 44.988281 -21.734375 44 -20.148438 42.65625 -18.976562 Z M 42.65625 -18.976562 "/></g></g></g><g fill="#ffffff" fill-opacity="1"><g transform="translate(1230.480908, 415.370685)"><g><path d="M 40.179688 -30.789062 C 38.589844 -33.628906 35.628906 -33.988281 32.796875 -34.027344 C 29.527344 -34.148438 26.65625 -33.101562 23.695312 -31.71875 C 18.203125 -29.09375 13.441406 -25.207031 9.152344 -20.695312 C 8.230469 -19.769531 7.210938 -18.726562 6.1875 -17.683594 C 8.191406 -29.121094 11.316406 -40.085938 13.890625 -51.125 C 16.460938 -62.273438 19.144531 -73.316406 21.605469 -84.457031 C 24.0625 -95.597656 26.640625 -106.636719 28.769531 -117.867188 C 26.871094 -118.617188 25.476562 -118.3125 24.703125 -116.742188 C 24.019531 -115.503906 23.457031 -114.054688 23.113281 -112.617188 C 21.296875 -106.847656 19.488281 -100.96875 17.902344 -94.996094 C 11.660156 -71.21875 5.417969 -47.441406 -0.816406 -23.554688 C -3.535156 -13.050781 -6.242188 -2.4375 -8.953125 8.171875 C -9.386719 9.941406 -10.046875 11.613281 -9.171875 13.410156 C -4.066406 15.046875 -2.25 14.5 0 10.445312 C 1.367188 7.964844 2.402344 5.398438 3.65625 2.816406 C 4.617188 0.800781 5.6875 -1.226562 6.359375 -2.679688 C 9.773438 -3.765625 12.5625 -4.375 15.105469 -5.511719 C 21.023438 -8.273438 26.792969 -11.679688 31.976562 -15.808594 C 34.457031 -17.921875 36.699219 -20.347656 38.816406 -22.980469 C 40.53125 -25.152344 41.664062 -27.945312 40.179688 -30.789062 Z M 32.050781 -26.800781 C 31.542969 -24.484375 30.027344 -22.648438 28.386719 -21.023438 C 23.769531 -16.601562 18.417969 -13.441406 13.28125 -10.292969 C 11.617188 -10.839844 11.554688 -11.816406 12.144531 -12.832031 C 12.625 -13.839844 13.332031 -14.753906 14.035156 -15.667969 C 18.667969 -21.617188 24.242188 -26.421875 31.835938 -30.269531 C 31.9375 -28.644531 32.214844 -27.683594 32.050781 -26.800781 Z M 32.050781 -26.800781 "/></g></g></g><g fill="#ffffff" fill-opacity="1"><g transform="translate(1285.745347, 411.925199)"><g/></g></g><g fill="#ffffff" fill-opacity="1"><g transform="translate(1331.799168, 409.053953)"><g><path d="M 11.628906 -3.664062 C 17.089844 -24.238281 23.65625 -44.554688 30.777344 -64.6875 C 34.945312 -76.371094 39.226562 -87.949219 43.394531 -99.632812 C 43.929688 -101.515625 44.90625 -103.316406 44.222656 -105.558594 C 41.992188 -106.398438 40.191406 -105.632812 39.113281 -103.71875 C 37.632812 -101.339844 36.261719 -98.863281 35.226562 -96.292969 C 31.824219 -88.03125 28.421875 -79.769531 25.246094 -71.414062 C 17.398438 -50.691406 10.441406 -29.695312 5.371094 -8.058594 C 3.933594 -1.441406 2.171875 5.195312 2.164062 12.050781 C 2.144531 13.464844 1.445312 14.488281 0.53125 15.523438 C -0.699219 16.6875 -2.257812 17.871094 -2.441406 20.167969 C -1.324219 20.644531 -0.410156 21.347656 0.679688 21.386719 C 2.097656 21.410156 3.605469 21.207031 4.988281 20.683594 C 8.285156 19.5 10.628906 16.960938 13.441406 14.9375 C 29.777344 3.039062 46.71875 -7.917969 65.238281 -16.25 C 65.65625 -16.496094 66.0625 -16.957031 66.792969 -17.4375 C 63.035156 -18.398438 61.714844 -18.640625 58.316406 -17.34375 C 53.75 -15.535156 49.078125 -13.71875 44.761719 -11.382812 C 34.339844 -5.839844 24.152344 0.015625 13.949219 5.65625 C 12.589844 6.503906 11.113281 7.25 8.59375 8.710938 C 9.804688 3.738281 10.660156 -0.0117188 11.628906 -3.664062 Z M 11.628906 -3.664062 "/></g></g></g><g fill="#ffffff" fill-opacity="1"><g transform="translate(1415.453986, 403.838456)"><g><path d="M 34.972656 -30.574219 C 32.859375 -29.570312 32.417969 -27.910156 31.632812 -26.558594 C 26.761719 -19.183594 20.847656 -12.832031 13.554688 -7.699219 C 11.574219 -6.269531 9.597656 -4.839844 6.683594 -4.441406 C 6.183594 -5.5 5.582031 -6.441406 5.40625 -7.515625 C 5.324219 -8.816406 5.460938 -10.132812 5.703125 -11.453125 C 6.828125 -16.089844 7.953125 -20.730469 9.1875 -25.375 C 9.527344 -26.917969 10.296875 -28.492188 9.980469 -30.101562 C 6.214844 -31.171875 5.144531 -30.890625 3.6875 -28.078125 C 0.984375 -22.578125 -1.046875 -16.796875 -2.085938 -10.75 C -2.152344 -10.089844 -2.21875 -9.433594 -2.289062 -8.777344 C -2.605469 -3.425781 -0.15625 -0.75 5.277344 -0.871094 C 9.082031 -0.894531 12.378906 -2.078125 15.511719 -4.230469 C 22.695312 -9.355469 28.726562 -15.605469 33.019531 -23.488281 C 33.902344 -25.066406 34.558594 -26.738281 35.101562 -28.515625 C 35.289062 -28.960938 35.03125 -29.597656 34.972656 -30.574219 Z M 11.40625 -40.417969 C 11.917969 -40.882812 12.324219 -41.34375 12.617188 -41.90625 C 13.273438 -43.578125 13.824219 -45.246094 14.675781 -47.257812 C 11.589844 -47.933594 8.996094 -47.664062 6.589844 -46.101562 C 4.707031 -44.894531 4.210938 -42.363281 5.28125 -40.90625 C 6.703125 -39.035156 9.65625 -38.785156 11.40625 -40.417969 Z M 11.40625 -40.417969 "/></g></g></g><g fill="#ffffff" fill-opacity="1"><g transform="translate(1459.015492, 401.122595)"><g><path d="M 6.148438 -33.996094 C 6.453125 -36.082031 7.441406 -37.667969 8.871094 -39.171875 C 17.65625 -48.3125 25.066406 -58.566406 31.558594 -69.632812 C 37.351562 -79.675781 41.457031 -90.589844 43.78125 -102.160156 C 44.609375 -106.34375 44.996094 -110.609375 44.296875 -114.808594 C 43.226562 -121.488281 38.378906 -124.230469 32.453125 -121.578125 C 30.121094 -120.5625 28.28125 -118.707031 26.667969 -116.648438 C 23.347656 -112.308594 20.375 -107.660156 18.195312 -102.523438 C 15.917969 -97.15625 13.652344 -91.578125 11.824219 -86.023438 C 6.683594 -70.800781 3.753906 -54.953125 1.488281 -38.929688 C -0.492188 -25.316406 -2.253906 -11.71875 -4.117188 1.996094 C -4.191406 2.546875 -4.042969 3.1875 -3.910156 3.617188 C -2.535156 4.726562 -1.125 4.640625 0.0351562 4.023438 C 0.976562 3.421875 1.664062 2.289062 2.253906 1.273438 C 3.140625 -0.195312 3.570312 -2.070312 5.003906 -3.46875 C 5.257812 -2.9375 5.609375 -2.523438 5.742188 -2.097656 C 6.921875 2.832031 9.15625 7.261719 11.808594 11.449219 C 15.5625 17.523438 19.414062 23.484375 23.375 29.4375 C 24.824219 31.742188 26.589844 33.914062 28.460938 35.972656 C 29.515625 37.214844 30.78125 38.332031 32.152344 39.332031 C 34.203125 40.835938 36.5 41.019531 38.78125 39.246094 C 36.910156 38.929688 35.753906 37.804688 34.691406 36.457031 C 33.742188 35.210938 32.792969 33.964844 31.957031 32.710938 C 26.292969 23.925781 21.046875 14.789062 16.421875 5.175781 C 15.542969 3.273438 14.757812 1.148438 13.980469 -0.871094 C 11.75 -6.933594 12.621094 -12.210938 17.238281 -16.632812 C 19.082031 -18.488281 21.046875 -20.132812 22.894531 -21.878906 C 24.859375 -23.523438 26.824219 -25.167969 28.558594 -27.019531 C 29.789062 -28.183594 30.792969 -29.550781 31.796875 -30.917969 C 32.492188 -31.941406 33.074219 -33.066406 32.34375 -34.324219 C 31.714844 -35.699219 30.402344 -35.835938 29.214844 -35.652344 C 27.378906 -35.429688 25.445312 -35.09375 23.75 -34.332031 C 22.050781 -33.683594 20.59375 -32.613281 19.136719 -31.542969 C 14.347656 -28.089844 10.371094 -23.816406 6.753906 -19.023438 C 6.144531 -18.332031 5.421875 -17.742188 4.5 -16.816406 C 4.332031 -17.785156 4.195312 -18.210938 4.277344 -18.652344 C 4.824219 -23.796875 5.484375 -28.953125 6.148438 -33.996094 Z M 7.503906 -43.65625 C 10.160156 -60.355469 13.597656 -76.78125 19.351562 -92.695312 C 21.769531 -99.261719 24.417969 -105.628906 28.191406 -111.414062 C 29.484375 -113.34375 30.894531 -115.171875 32.304688 -117 C 33.210938 -118.144531 34.21875 -119.402344 35.949219 -119.621094 C 37.652344 -118.421875 38.101562 -116.492188 38.335938 -114.4375 C 38.804688 -110.441406 38.28125 -106.601562 37.542969 -102.75 C 35.707031 -93.824219 32.976562 -85.277344 29.242188 -77.101562 C 23.984375 -65.460938 17.359375 -54.820312 10.28125 -44.480469 C 9.785156 -43.6875 9.175781 -43 8.558594 -42.414062 C 8.355469 -42.1875 8.023438 -42.273438 7.59375 -42.246094 C 7.566406 -42.679688 7.421875 -43.214844 7.503906 -43.65625 Z M 25.871094 -30.003906 C 23.816406 -26.289062 21 -24.371094 17.949219 -22.660156 C 20.429688 -26.511719 22.179688 -28.144531 25.871094 -30.003906 Z M 25.871094 -30.003906 "/></g></g></g><g fill="#ffffff" fill-opacity="1"><g transform="translate(1503.877345, 398.325663)"><g><path d="M 36.386719 -20.109375 C 35.667969 -19.410156 34.835938 -18.816406 34.238281 -17.910156 C 30.113281 -12.539062 25.039062 -8.414062 19.355469 -5.339844 C 17.460938 -4.351562 15.320312 -3.785156 13.171875 -3.324219 C 10.910156 -2.964844 8.988281 -4.148438 7.660156 -6.242188 C 6.460938 -8.019531 5.574219 -10.03125 5.941406 -12.878906 C 10.28125 -14.78125 13.703125 -17.5 16.515625 -21.261719 C 17.828125 -22.867188 19.015625 -24.792969 19.652344 -26.789062 C 20.835938 -30.453125 19.457031 -33.414062 16.21875 -34.734375 C 12.210938 -36.226562 8.566406 -35.34375 5.734375 -31.90625 C 1.175781 -26.507812 -1.464844 -20.035156 -1.433594 -12.53125 C -1.347656 -5.898438 2.078125 -1.542969 7.824219 -0.160156 C 12.5625 0.847656 17.101562 0.347656 21.410156 -2.097656 C 26.144531 -4.675781 30.382812 -8.203125 34.019531 -12.671875 C 35.125 -14.15625 36.109375 -15.847656 36.976562 -17.644531 C 37.375 -18.210938 37.207031 -19.179688 37.265625 -19.945312 C 36.710938 -20.128906 36.488281 -20.222656 36.386719 -20.109375 Z M 12.5625 -30.589844 C 13.617188 -29.351562 13.273438 -27.914062 12.703125 -26.574219 C 11.375 -23.445312 9.585938 -20.722656 6.796875 -18.375 C 7.296875 -24.277344 9.03125 -27.867188 12.5625 -30.589844 Z M 12.5625 -30.589844 "/></g></g></g><g fill="#ffffff" fill-opacity="1"><g transform="translate(1548.955892, 395.515221)"><g/></g></g><g fill="#ffffff" fill-opacity="1"><g transform="translate(1595.009713, 392.643975)"><g><path d="M 18.082031 -31.042969 C 18.738281 -32.714844 19.179688 -34.375 19.84375 -35.9375 C 23.445312 -44.433594 26.941406 -52.917969 30.4375 -61.402344 C 32.140625 -65.535156 33.617188 -69.761719 34.984375 -73.980469 C 35.628906 -75.867188 36.050781 -77.851562 36.257812 -79.714844 C 36.695312 -83.222656 35.292969 -84.769531 31.804688 -84.875 C 29.296875 -84.9375 27.179688 -84.042969 25.4375 -82.304688 C 24.507812 -81.484375 23.703125 -80.457031 23.003906 -79.433594 C 15.613281 -68.855469 8.90625 -57.777344 3.441406 -46.011719 C 2.011719 -42.769531 0.921875 -39.328125 -0.0625 -35.894531 C -0.503906 -34.234375 -0.273438 -32.292969 -0.164062 -30.558594 C -0.144531 -30.234375 0.546875 -29.625 0.980469 -29.652344 C 1.527344 -29.574219 2.265625 -29.949219 2.789062 -30.308594 C 3 -30.429688 3.1875 -30.875 3.277344 -31.207031 C 6.867188 -41.65625 12.820312 -50.839844 18.777344 -60.023438 C 19.269531 -60.816406 19.988281 -61.511719 20.597656 -62.203125 C 20.410156 -60.015625 19.757812 -58.234375 19 -56.445312 C 14.460938 -45.503906 9.8125 -34.550781 5.382812 -23.617188 C 4.242188 -20.933594 3.4375 -18.164062 2.847656 -15.40625 C 2.167969 -12.320312 3.230469 -10.972656 6.300781 -10.617188 C 7.832031 -10.496094 9.558594 -10.710938 11.0625 -11.023438 C 13.316406 -11.492188 14.847656 -13.109375 16.269531 -14.722656 C 20.617188 -19.996094 25.199219 -25.070312 29.316406 -30.546875 C 41.46875 -46.753906 53.507812 -63.058594 65.769531 -79.269531 C 69.988281 -84.863281 74.660156 -90.160156 79.226562 -95.449219 C 80.34375 -96.714844 81.335938 -98.300781 83.589844 -98.765625 C 83.550781 -97.675781 83.496094 -96.800781 83.324219 -96.03125 C 82.058594 -91.925781 81.015625 -87.726562 79.414062 -83.710938 C 76.238281 -75.355469 72.726562 -67.085938 69.441406 -58.722656 C 64.46875 -46.011719 59.15625 -33.496094 54.632812 -20.59375 C 49.453125 -5.910156 45.171875 9.148438 42.65625 24.644531 C 42.09375 27.835938 41.753906 31.121094 41.953125 34.261719 C 42.289062 39.679688 45.554688 41.433594 50.539062 39.382812 C 50.957031 39.140625 51.488281 38.890625 51.898438 38.539062 C 52.101562 38.308594 52.183594 37.867188 52.273438 37.535156 C 51.054688 37.175781 49.726562 36.824219 48.398438 36.472656 C 48.433594 35.273438 48.269531 34.414062 48.433594 33.53125 C 49.503906 28.027344 50.25 22.539062 51.765625 17.222656 C 56.339844 -0.140625 62.464844 -17.058594 69.039062 -33.785156 C 74.96875 -48.621094 81.226562 -63.371094 87.046875 -78.203125 C 89.304688 -83.894531 91.003906 -89.765625 92.820312 -95.535156 C 93.269531 -97.085938 93.601562 -98.738281 93.605469 -100.371094 C 93.769531 -104.730469 92.03125 -106.472656 87.554688 -106.738281 C 84.390625 -106.867188 81.390625 -106.136719 78.882812 -104.457031 C 76.484375 -102.785156 74.203125 -101.007812 72.035156 -99.132812 C 64.320312 -92.015625 57.980469 -83.789062 51.761719 -75.351562 C 41.328125 -61.210938 31.003906 -47.078125 20.582031 -32.832031 C 19.972656 -32.140625 19.46875 -31.457031 18.859375 -30.765625 C 18.636719 -30.859375 18.304688 -30.949219 18.082031 -31.042969 Z M 18.082031 -31.042969 "/></g></g></g><g fill="#ffffff" fill-opacity="1"><g transform="translate(1688.633669, 386.806947)"><g><path d="M 25.101562 -12.660156 C 23.082031 -11.882812 21.066406 -11.105469 18.734375 -11.828125 C 19.285156 -13.496094 19.730469 -15.046875 20.183594 -16.488281 C 21.261719 -20.144531 22.125 -23.789062 21.996094 -27.589844 C 21.90625 -32.476562 19.890625 -35.179688 16.394531 -35.398438 C 15.414062 -35.445312 14.445312 -35.277344 13.484375 -35 C 10.488281 -34.160156 8.011719 -32.046875 5.789062 -29.296875 C 3.464844 -26.433594 1.820312 -23.175781 2.191406 -18.957031 C 1.121094 -16.929688 0.0429688 -15.015625 -0.925781 -13.105469 C -1.96875 -10.648438 -3.003906 -8.082031 -3.261719 -5.234375 C -3.5625 -1.300781 -2.425781 1.238281 0.339844 1.9375 C 1.996094 2.378906 3.839844 2.261719 5.445312 1.835938 C 8.019531 1.242188 10.292969 -0.640625 12.328125 -2.945312 C 13.960938 -4.679688 15.585938 -6.519531 17.414062 -8.59375 C 24.660156 -9.261719 25.515625 -9.53125 28.054688 -12.410156 C 26.367188 -13.285156 26.367188 -13.285156 25.101562 -12.660156 Z M 3.347656 -0.425781 C 2.269531 -0.25 1.363281 -0.847656 1.265625 -2.363281 C 1.070312 -3.765625 1.085938 -5.289062 1.320312 -6.71875 C 1.90625 -9.582031 2.710938 -12.351562 4.28125 -15.0625 C 5.878906 -13.855469 7.03125 -12.839844 8.285156 -11.9375 C 9.53125 -11.144531 10.886719 -10.359375 12.238281 -9.574219 C 10.632812 -5.667969 6.128906 -1.144531 3.347656 -0.425781 Z M 14.523438 -13.089844 C 11.839844 -14.226562 10.101562 -15.96875 9.132812 -19.28125 C 8.578125 -21.203125 8.484375 -22.722656 9.242188 -24.507812 C 10.867188 -28.089844 12.96875 -31.050781 15.925781 -32.433594 C 17.382812 -31.761719 17.707031 -30.039062 17.808594 -28.414062 C 18.152344 -22.890625 16.949219 -17.808594 14.523438 -13.089844 Z M 14.523438 -13.089844 "/></g></g></g><g fill="#ffffff" fill-opacity="1"><g transform="translate(1726.452086, 384.449141)"><g/></g></g><g fill="#ffffff" fill-opacity="1"><g transform="translate(1772.505906, 381.577895)"><g><path d="M 86.621094 -91.992188 C 83.894531 -97.371094 79.585938 -100.148438 73.5 -100.09375 C 72.082031 -100.117188 70.574219 -99.914062 69.070312 -99.601562 C 62.953125 -98.242188 57.832031 -94.875 53.429688 -90.46875 C 42.789062 -79.6875 34.972656 -67.234375 30.4375 -52.699219 C 29.636719 -49.820312 28.390625 -47.132812 26.804688 -44.640625 C 18.109375 -30.609375 11.753906 -15.636719 7.523438 0.292969 C 6.210938 5.378906 5.652344 10.417969 6.519531 15.585938 C 7.390625 20.859375 10.535156 24.144531 15.730469 25.453125 C 17.71875 25.984375 19.902344 26.0625 22.074219 26.039062 C 26.964844 25.949219 31.429688 24.257812 35.742188 21.921875 C 43.207031 17.757812 49.5 12.253906 55.195312 5.914062 C 70.347656 -11.023438 80.660156 -30.59375 86.691406 -52.507812 C 89.003906 -60.8125 90.316406 -69.378906 89.777344 -78.046875 C 89.480469 -82.816406 88.964844 -87.570312 86.621094 -91.992188 Z M 28.46875 -23.207031 C 30.59375 -17.027344 35.035156 -13.824219 41.28125 -13.125 C 45.988281 -12.65625 50.621094 -13.382812 54.855469 -15.277344 C 55.273438 -15.519531 55.570312 -15.976562 56.296875 -16.5625 C 55.402344 -16.945312 54.710938 -17.554688 54.0625 -17.511719 C 52.21875 -17.398438 50.5 -17.074219 48.671875 -16.742188 C 43.625 -15.664062 40.265625 -17.195312 38.234375 -21.855469 C 37.46875 -23.65625 37.015625 -25.695312 36.894531 -27.648438 C 36.144531 -34.453125 37.464844 -41.171875 39.34375 -47.707031 C 39.429688 -48.039062 39.84375 -48.390625 40.554688 -49.195312 C 40.5 -46.582031 40.519531 -44.515625 40.464844 -41.902344 C 41.515625 -42.511719 42.152344 -42.769531 42.449219 -43.222656 C 44.746094 -46.519531 46.035156 -50.300781 46.882812 -54.160156 C 47.382812 -56.585938 46.917969 -57.101562 43.816406 -59.734375 C 43.894531 -60.175781 43.863281 -60.71875 44.050781 -61.164062 C 48.347656 -70.785156 53.78125 -79.609375 60.683594 -87.546875 C 63.222656 -90.425781 66.007812 -92.882812 69.480469 -94.730469 C 72.226562 -96.097656 73.546875 -95.855469 75.441406 -93.363281 C 77.703125 -90.242188 78.800781 -86.609375 79.367188 -82.730469 C 80.265625 -75.277344 79.859375 -67.855469 78.246094 -60.574219 C 72.566406 -34.765625 61.042969 -11.964844 42.539062 7.03125 C 38.34375 11.316406 33.683594 15.085938 28.539062 18.019531 C 27.488281 18.628906 26.546875 19.230469 25.488281 19.734375 C 21.894531 21.371094 20.113281 20.71875 18.460938 16.90625 C 17.824219 15.425781 17.503906 13.8125 17.296875 12.195312 C 16.847656 8.523438 17.277344 4.90625 18.027344 1.269531 C 19.96875 -7.773438 22.902344 -16.550781 26.390625 -25.144531 C 26.476562 -25.476562 26.796875 -25.601562 27.507812 -26.410156 C 27.914062 -25.128906 28.082031 -24.160156 28.46875 -23.207031 Z M 28.46875 -23.207031 "/></g></g></g><g fill="#ffffff" fill-opacity="1"><g transform="translate(1871.764575, 375.389569)"><g><path d="M 52.566406 -72.898438 C 48.863281 -72.996094 45.265625 -73.097656 41.59375 -72.652344 C 33.589844 -71.933594 25.496094 -70.886719 17.503906 -69.953125 C 16.421875 -69.882812 15.324219 -70.035156 14.015625 -70.0625 C 14.59375 -73.035156 15.082031 -75.675781 15.574219 -78.207031 C 16.070312 -80.742188 17.445312 -83.109375 17.160156 -85.921875 C 14.492188 -86.84375 12.707031 -85.863281 11.75 -83.734375 C 10.605469 -81.160156 9.683594 -78.492188 8.871094 -75.832031 C 8.253906 -73.507812 7.753906 -71.085938 7.148438 -68.542969 C 4.035156 -67.914062 1.128906 -67.40625 -1.769531 -66.792969 C -6.714844 -65.832031 -11.550781 -64.878906 -16.375 -63.707031 C -18.195312 -63.265625 -20.246094 -63.03125 -21.425781 -60.996094 C -18.738281 -59.75 -18.738281 -59.75 -17.234375 -60.0625 C -10.351562 -61.363281 -3.578125 -62.65625 3.191406 -63.945312 C 4.054688 -64.109375 5.046875 -63.84375 6.140625 -63.804688 C 5.914062 -62.160156 5.671875 -60.835938 5.421875 -59.625 C 2.378906 -43.878906 -0.441406 -28.039062 -2.613281 -12.238281 C -4.28125 -0.601562 -5.839844 11.023438 -6.410156 22.808594 C -6.417969 24.441406 -6.316406 26.066406 -6.105469 27.6875 C -5.949219 28.4375 -5.464844 29.277344 -4.066406 28.972656 C -3.824219 27.652344 -3.472656 26.324219 -3.234375 24.894531 C -2.875 21.9375 -2.515625 18.976562 -2.15625 16.015625 C 1.851562 -10.449219 7.726562 -36.597656 12.613281 -62.902344 C 12.769531 -63.890625 13.265625 -64.683594 13.644531 -65.578125 C 27.542969 -67.75 41.09375 -70.226562 55.019531 -71.964844 C 54.234375 -72.351562 53.324219 -72.945312 52.566406 -72.898438 Z M 52.566406 -72.898438 "/></g></g></g><g fill="#ffffff" fill-opacity="1"><g transform="translate(1901.672719, 373.524933)"><g><path d="M 24.445312 -115.640625 C 22.902344 -115.976562 21.5 -115.78125 20.957031 -114.007812 C 20.417969 -112.234375 19.984375 -110.464844 19.550781 -108.699219 C 17.007812 -98.859375 14.472656 -88.910156 11.832031 -78.953125 C 5.570312 -55.5 -0.808594 -32.148438 -7.070312 -8.695312 C -7.523438 -7.253906 -7.863281 -5.710938 -8.097656 -4.28125 C -8.316406 -2.527344 -7.613281 -1.699219 -5.960938 -1.367188 C -3.433594 -0.984375 -1.308594 -1.769531 0.296875 -3.933594 C 2.59375 -7.234375 4.890625 -10.53125 7.296875 -13.835938 C 10.40625 -18.054688 13.628906 -22.171875 16.738281 -26.390625 C 17.246094 -26.964844 17.878906 -27.332031 19.226562 -28.394531 C 18.195312 -23.980469 17.429688 -20.558594 16.671875 -17.03125 C 15.132812 -10.300781 14.683594 -3.527344 15.542969 3.273438 C 15.773438 5.21875 16.21875 7.148438 16.875 8.957031 C 17.269531 10.019531 17.988281 11.0625 18.699219 11.996094 C 19.984375 13.441406 21.75 13.875 23.585938 13.652344 C 25.105469 13.554688 26.730469 13.453125 27.597656 11.660156 C 23.628906 10.820312 23.390625 10.507812 22.835938 6.84375 C 22.652344 5.660156 22.574219 4.359375 22.5 3.167969 C 22.160156 -2.25 22.914062 -7.628906 23.882812 -13.019531 C 24.785156 -17.753906 25.683594 -22.488281 26.476562 -27.214844 C 26.703125 -28.859375 26.8125 -30.609375 26.710938 -32.234375 C 26.648438 -34.949219 25.613281 -35.863281 22.882812 -36.019531 C 20.160156 -36.066406 17.933594 -35.167969 16.097656 -33.203125 C 12.636719 -29.398438 9.28125 -25.597656 5.929688 -21.800781 C 5.023438 -20.65625 4.113281 -19.511719 2.601562 -17.566406 C 2.808594 -19.539062 2.855469 -20.519531 3.117188 -21.515625 C 5.644531 -31.574219 8.175781 -41.628906 10.808594 -51.695312 C 15.03125 -67.730469 19.476562 -83.671875 22.703125 -99.972656 C 23.550781 -103.835938 24.179688 -107.679688 24.921875 -111.535156 C 25.054688 -112.847656 25.511719 -114.292969 24.445312 -115.640625 Z M 24.445312 -115.640625 "/></g></g></g><g fill="#ffffff" fill-opacity="1"><g transform="translate(1945.342663, 370.802311)"><g><path d="M 36.386719 -20.109375 C 35.667969 -19.410156 34.835938 -18.816406 34.238281 -17.910156 C 30.113281 -12.539062 25.039062 -8.414062 19.355469 -5.339844 C 17.460938 -4.351562 15.320312 -3.785156 13.171875 -3.324219 C 10.910156 -2.964844 8.988281 -4.148438 7.660156 -6.242188 C 6.460938 -8.019531 5.574219 -10.03125 5.941406 -12.878906 C 10.28125 -14.78125 13.703125 -17.5 16.515625 -21.261719 C 17.828125 -22.867188 19.015625 -24.792969 19.652344 -26.789062 C 20.835938 -30.453125 19.457031 -33.414062 16.21875 -34.734375 C 12.210938 -36.226562 8.566406 -35.34375 5.734375 -31.90625 C 1.175781 -26.507812 -1.464844 -20.035156 -1.433594 -12.53125 C -1.347656 -5.898438 2.078125 -1.542969 7.824219 -0.160156 C 12.5625 0.847656 17.101562 0.347656 21.410156 -2.097656 C 26.144531 -4.675781 30.382812 -8.203125 34.019531 -12.671875 C 35.125 -14.15625 36.109375 -15.847656 36.976562 -17.644531 C 37.375 -18.210938 37.207031 -19.179688 37.265625 -19.945312 C 36.710938 -20.128906 36.488281 -20.222656 36.386719 -20.109375 Z M 12.5625 -30.589844 C 13.617188 -29.351562 13.273438 -27.914062 12.703125 -26.574219 C 11.375 -23.445312 9.585938 -20.722656 6.796875 -18.375 C 7.296875 -24.277344 9.03125 -27.867188 12.5625 -30.589844 Z M 12.5625 -30.589844 "/></g></g></g><g fill="#ffffff" fill-opacity="1"><g transform="translate(1990.42121, 367.991869)"><g><path d="M 29.839844 -32.644531 C 28.90625 -35.417969 27.089844 -36.609375 24.175781 -36.210938 C 21.914062 -35.851562 20.125 -34.871094 18.71875 -33.039062 C 16.210938 -29.621094 13.710938 -26.09375 11.097656 -22.667969 C 10.5 -21.757812 9.796875 -20.84375 8.480469 -19.238281 C 8.542969 -25.226562 11.085938 -29.84375 11.078125 -35.175781 C 8.863281 -35.800781 7.585938 -35.394531 6.8125 -33.820312 C 6.222656 -32.804688 5.75 -31.6875 5.375 -30.6875 C 2.507812 -22.566406 -0.355469 -14.445312 -3.222656 -6.324219 C -3.683594 -4.992188 -4.027344 -3.554688 -4.265625 -2.128906 C -4.667969 0.183594 -3.5 1.414062 -1.117188 1.265625 C 0.507812 1.164062 2.105469 0.628906 3.21875 -0.746094 C 4.542969 -2.132812 5.867188 -3.628906 6.957031 -5.328125 C 9.253906 -8.625 11.21875 -12.011719 13.40625 -15.304688 C 16.089844 -19.386719 18.878906 -23.476562 21.777344 -27.574219 C 22.375 -28.480469 23.199219 -29.1875 24.332031 -30.234375 C 24.976562 -28.644531 25.484375 -27.480469 25.882812 -26.308594 C 26.269531 -25.351562 26.4375 -24.382812 27.035156 -23.550781 C 27.390625 -23.03125 28.292969 -22.542969 28.949219 -22.472656 C 29.273438 -22.496094 29.984375 -23.300781 30.167969 -23.855469 C 30.855469 -26.835938 30.671875 -29.761719 29.839844 -32.644531 Z M 29.839844 -32.644531 "/></g></g></g><g fill="#ffffff" fill-opacity="1"><g transform="translate(2040.375949, 364.877418)"><g><path d="M 37.207031 -129.054688 C 36.261719 -128.558594 35.570312 -127.429688 35.195312 -126.425781 C 34.445312 -124.53125 33.910156 -122.648438 33.488281 -120.664062 C 30.492188 -107.640625 27.382812 -94.71875 24.503906 -81.59375 C 20.179688 -61.960938 15.636719 -42.3125 12.53125 -22.320312 C 11.589844 -16.496094 10.871094 -10.578125 11.136719 -4.609375 C 11.230469 -3.09375 11.324219 -1.578125 11.738281 -0.1875 C 11.878906 0.347656 12.785156 0.945312 13.449219 1.121094 C 14.003906 1.300781 14.859375 1.03125 15.265625 0.570312 C 15.679688 0.21875 15.847656 -0.554688 15.921875 -1.101562 C 16.25 -4.601562 16.464844 -8.097656 16.90625 -11.496094 C 18.816406 -24.453125 21.832031 -37.152344 24.632812 -49.835938 C 30.089844 -74 35.4375 -98.15625 40.886719 -122.429688 C 41.296875 -124.523438 41.71875 -126.507812 41.480469 -128.558594 C 39.984375 -129.878906 38.46875 -129.785156 37.207031 -129.054688 Z M 6.574219 12.96875 C 5.847656 13.558594 6.363281 14.832031 7.375 15.3125 C 9.398438 16.382812 11.566406 16.25 13.71875 15.898438 C 17.167969 15.355469 18.082031 14.320312 18.175781 10.617188 C 18.25 10.066406 18.210938 9.417969 18.164062 8.660156 C 17.269531 8.277344 16.484375 7.894531 15.726562 7.941406 C 11.683594 7.648438 9.25 10.519531 6.574219 12.96875 Z M 6.574219 12.96875 "/></g></g></g></svg>