<svg xmlns="http://www.w3.org/2000/svg" xmlns:xlink="http://www.w3.org/1999/xlink" width="3088" zoomAndPan="magnify" viewBox="0 0 2316 562.499983" height="750" preserveAspectRatio="xMidYMid meet" version="1.0"><defs><g/></defs><g fill="#000000" fill-opacity="1"><g transform="translate(88.9581, 259.058654)"><g><path d="M 15.375 -117.046875 L 62.03125 -117.046875 C 76.75 -117.046875 88.144531 -113.5625 96.21875 -106.59375 C 104.300781 -99.625 108.34375 -89.785156 108.34375 -77.078125 C 108.34375 -63.816406 104.300781 -53.535156 96.21875 -46.234375 C 88.144531 -38.929688 76.75 -35.28125 62.03125 -35.28125 L 35.109375 -35.28125 L 35.109375 0 L 15.375 0 Z M 35.109375 -99.3125 L 35.109375 -53 L 61.203125 -53 C 80.035156 -53 89.453125 -60.859375 89.453125 -76.578125 C 89.453125 -91.734375 80.035156 -99.3125 61.203125 -99.3125 Z M 35.109375 -99.3125 "/></g></g></g><g fill="#000000" fill-opacity="1"><g transform="translate(201.480409, 259.058654)"><g><path d="M 67.546875 0 L 67.546875 -10.875 C 61.191406 -3.0625 51.382812 0.84375 38.125 0.84375 C 28.644531 0.84375 21.0625 -1.75 15.375 -6.9375 C 9.695312 -12.125 6.859375 -18.726562 6.859375 -26.75 C 6.859375 -34.882812 9.8125 -41.347656 15.71875 -46.140625 C 21.625 -50.941406 29.875 -53.394531 40.46875 -53.5 L 67.390625 -53.5 L 67.390625 -56.1875 C 67.390625 -61.863281 65.578125 -66.265625 61.953125 -69.390625 C 58.328125 -72.515625 53.054688 -74.078125 46.140625 -74.078125 C 37.554688 -74.078125 28.804688 -71.066406 19.890625 -65.046875 L 12.03125 -78.421875 C 18.832031 -82.429688 24.9375 -85.300781 30.34375 -87.03125 C 35.75 -88.757812 42.410156 -89.625 50.328125 -89.625 C 61.703125 -89.625 70.507812 -86.863281 76.75 -81.34375 C 82.988281 -75.820312 86.164062 -68.160156 86.28125 -58.359375 L 86.4375 0 Z M 42.140625 -14.375 C 48.929688 -14.375 54.695312 -15.960938 59.4375 -19.140625 C 64.175781 -22.316406 66.828125 -26.359375 67.390625 -31.265625 L 67.390625 -39.453125 L 43.3125 -39.453125 C 36.957031 -39.453125 32.300781 -38.53125 29.34375 -36.6875 C 26.382812 -34.851562 24.90625 -31.820312 24.90625 -27.59375 C 24.90625 -23.570312 26.4375 -20.363281 29.5 -17.96875 C 32.570312 -15.570312 36.785156 -14.375 42.140625 -14.375 Z M 42.140625 -14.375 "/></g></g></g><g fill="#000000" fill-opacity="1"><g transform="translate(299.45675, 259.058654)"><g><path d="M 98.984375 -124.0625 L 98.984375 0 L 79.75 0 L 79.75 -15.21875 C 73.175781 -4.507812 62.753906 0.84375 48.484375 0.84375 C 35.773438 0.84375 25.492188 -3.363281 17.640625 -11.78125 C 9.785156 -20.195312 5.859375 -31.207031 5.859375 -44.8125 C 5.859375 -58.1875 9.757812 -69.023438 17.5625 -77.328125 C 25.363281 -85.628906 35.5625 -89.78125 48.15625 -89.78125 C 62.425781 -89.78125 72.957031 -84.375 79.75 -73.5625 L 79.75 -124.0625 Z M 32.859375 -23.328125 C 37.929688 -17.921875 44.476562 -15.21875 52.5 -15.21875 C 60.53125 -15.21875 67.078125 -17.921875 72.140625 -23.328125 C 77.210938 -28.734375 79.75 -35.671875 79.75 -44.140625 C 79.75 -52.722656 77.210938 -59.742188 72.140625 -65.203125 C 67.078125 -70.671875 60.53125 -73.40625 52.5 -73.40625 C 44.476562 -73.40625 37.929688 -70.671875 32.859375 -65.203125 C 27.785156 -59.742188 25.191406 -52.722656 25.078125 -44.140625 C 25.191406 -35.671875 27.785156 -28.734375 32.859375 -23.328125 Z M 32.859375 -23.328125 "/></g></g></g><g fill="#000000" fill-opacity="1"><g transform="translate(413.48381, 259.058654)"><g><path d="M 98.984375 -124.0625 L 98.984375 0 L 79.75 0 L 79.75 -15.21875 C 73.175781 -4.507812 62.753906 0.84375 48.484375 0.84375 C 35.773438 0.84375 25.492188 -3.363281 17.640625 -11.78125 C 9.785156 -20.195312 5.859375 -31.207031 5.859375 -44.8125 C 5.859375 -58.1875 9.757812 -69.023438 17.5625 -77.328125 C 25.363281 -85.628906 35.5625 -89.78125 48.15625 -89.78125 C 62.425781 -89.78125 72.957031 -84.375 79.75 -73.5625 L 79.75 -124.0625 Z M 32.859375 -23.328125 C 37.929688 -17.921875 44.476562 -15.21875 52.5 -15.21875 C 60.53125 -15.21875 67.078125 -17.921875 72.140625 -23.328125 C 77.210938 -28.734375 79.75 -35.671875 79.75 -44.140625 C 79.75 -52.722656 77.210938 -59.742188 72.140625 -65.203125 C 67.078125 -70.671875 60.53125 -73.40625 52.5 -73.40625 C 44.476562 -73.40625 37.929688 -70.671875 32.859375 -65.203125 C 27.785156 -59.742188 25.191406 -52.722656 25.078125 -44.140625 C 25.191406 -35.671875 27.785156 -28.734375 32.859375 -23.328125 Z M 32.859375 -23.328125 "/></g></g></g><g fill="#000000" fill-opacity="1"><g transform="translate(527.51087, 259.058654)"><g><path d="M 15.71875 -122.8125 C 17.832031 -124.988281 20.503906 -126.078125 23.734375 -126.078125 C 26.972656 -126.078125 29.648438 -124.988281 31.765625 -122.8125 C 33.890625 -120.632812 34.953125 -117.816406 34.953125 -114.359375 C 34.953125 -111.015625 33.890625 -108.253906 31.765625 -106.078125 C 29.648438 -103.910156 26.972656 -102.828125 23.734375 -102.828125 C 20.503906 -102.828125 17.832031 -103.910156 15.71875 -106.078125 C 13.601562 -108.253906 12.546875 -111.015625 12.546875 -114.359375 C 12.546875 -117.816406 13.601562 -120.632812 15.71875 -122.8125 Z M 33.265625 0 L 14.21875 0 L 14.21875 -88.953125 L 33.265625 -88.953125 Z M 33.265625 0 "/></g></g></g><g fill="#000000" fill-opacity="1"><g transform="translate(574.994279, 259.058654)"><g><path d="M 66.21875 -89.625 C 76.582031 -89.625 84.6875 -86.582031 90.53125 -80.5 C 96.382812 -74.425781 99.3125 -66.039062 99.3125 -55.34375 L 99.3125 0 L 80.09375 0 L 80.09375 -50 C 80.09375 -56.6875 78.195312 -61.953125 74.40625 -65.796875 C 70.613281 -69.640625 65.375 -71.5625 58.6875 -71.5625 C 51.550781 -71.445312 45.722656 -69.160156 41.203125 -64.703125 C 36.691406 -60.242188 34.101562 -54.445312 33.4375 -47.3125 L 33.4375 0 L 14.21875 0 L 14.21875 -88.953125 L 33.4375 -88.953125 L 33.4375 -71.890625 C 39.457031 -83.710938 50.382812 -89.625 66.21875 -89.625 Z M 66.21875 -89.625 "/></g></g></g><g fill="#000000" fill-opacity="1"><g transform="translate(685.844651, 259.058654)"><g><path d="M 94.46875 -88.953125 L 94.46875 -8.6875 C 94.46875 4.007812 90.285156 14.117188 81.921875 21.640625 C 73.566406 29.171875 62.367188 32.9375 48.328125 32.9375 C 35.171875 32.9375 22.851562 29.035156 11.375 21.234375 L 19.5625 7.359375 C 28.257812 13.828125 37.566406 17.0625 47.484375 17.0625 C 55.953125 17.0625 62.722656 14.773438 67.796875 10.203125 C 72.867188 5.628906 75.40625 -0.5 75.40625 -8.1875 L 75.40625 -19.390625 C 69.164062 -9.359375 59.359375 -4.34375 45.984375 -4.34375 C 33.941406 -4.34375 24.242188 -8.300781 16.890625 -16.21875 C 9.535156 -24.132812 5.859375 -34.5 5.859375 -47.3125 C 5.859375 -59.914062 9.476562 -70.085938 16.71875 -77.828125 C 23.96875 -85.578125 33.5 -89.507812 45.3125 -89.625 C 58.90625 -89.726562 68.9375 -84.710938 75.40625 -74.578125 L 75.40625 -88.953125 Z M 49.828125 -19.390625 C 57.296875 -19.390625 63.425781 -21.953125 68.21875 -27.078125 C 73.007812 -32.210938 75.40625 -38.789062 75.40625 -46.8125 C 75.40625 -54.84375 73.035156 -61.394531 68.296875 -66.46875 C 63.566406 -71.539062 57.410156 -74.078125 49.828125 -74.078125 C 42.242188 -74.078125 36.054688 -71.539062 31.265625 -66.46875 C 26.472656 -61.394531 24.019531 -54.84375 23.90625 -46.8125 C 24.019531 -38.789062 26.445312 -32.210938 31.1875 -27.078125 C 35.925781 -21.953125 42.140625 -19.390625 49.828125 -19.390625 Z M 49.828125 -19.390625 "/></g></g></g><g fill="#000000" fill-opacity="1"><g transform="translate(792.849519, 259.058654)"><g><path d="M 59.6875 -20.40625 L 64.546875 -5.6875 C 57.179688 -1.332031 49.875 0.84375 42.625 0.84375 C 35.382812 0.84375 29.421875 -1.328125 24.734375 -5.671875 C 20.054688 -10.023438 17.71875 -16.492188 17.71875 -25.078125 L 17.71875 -71.234375 L 5.1875 -71.234375 L 5.1875 -85.609375 L 17.71875 -85.609375 L 17.71875 -110.015625 L 36.78125 -110.015625 L 36.78125 -85.609375 L 63.03125 -85.609375 L 63.03125 -71.234375 L 36.78125 -71.234375 L 36.78125 -28.59375 C 36.78125 -24.132812 37.5625 -21.007812 39.125 -19.21875 C 40.6875 -17.4375 43.082031 -16.546875 46.3125 -16.546875 C 49.882812 -16.546875 54.34375 -17.832031 59.6875 -20.40625 Z M 59.6875 -20.40625 "/></g></g></g><g fill="#000000" fill-opacity="1"><g transform="translate(860.897944, 259.058654)"><g><path d="M 52.328125 -89.625 C 66.046875 -89.625 77.195312 -85.46875 85.78125 -77.15625 C 94.363281 -68.851562 98.65625 -57.957031 98.65625 -44.46875 C 98.65625 -31.09375 94.363281 -20.222656 85.78125 -11.859375 C 77.195312 -3.503906 66.046875 0.671875 52.328125 0.671875 C 38.503906 0.671875 27.300781 -3.503906 18.71875 -11.859375 C 10.144531 -20.222656 5.859375 -31.09375 5.859375 -44.46875 C 5.859375 -57.957031 10.144531 -68.851562 18.71875 -77.15625 C 27.300781 -85.46875 38.503906 -89.625 52.328125 -89.625 Z M 52.328125 -73.0625 C 44.304688 -73.0625 37.757812 -70.382812 32.6875 -65.03125 C 27.613281 -59.6875 25.078125 -52.78125 25.078125 -44.3125 C 25.078125 -35.726562 27.613281 -28.757812 32.6875 -23.40625 C 37.757812 -18.050781 44.304688 -15.375 52.328125 -15.375 C 60.359375 -15.375 66.878906 -18.050781 71.890625 -23.40625 C 76.910156 -28.757812 79.421875 -35.726562 79.421875 -44.3125 C 79.421875 -52.78125 76.882812 -59.6875 71.8125 -65.03125 C 66.738281 -70.382812 60.242188 -73.0625 52.328125 -73.0625 Z M 52.328125 -73.0625 "/></g></g></g><g fill="#000000" fill-opacity="1"><g transform="translate(965.394895, 259.058654)"><g><path d="M 66.21875 -89.625 C 76.582031 -89.625 84.6875 -86.582031 90.53125 -80.5 C 96.382812 -74.425781 99.3125 -66.039062 99.3125 -55.34375 L 99.3125 0 L 80.09375 0 L 80.09375 -50 C 80.09375 -56.6875 78.195312 -61.953125 74.40625 -65.796875 C 70.613281 -69.640625 65.375 -71.5625 58.6875 -71.5625 C 51.550781 -71.445312 45.722656 -69.160156 41.203125 -64.703125 C 36.691406 -60.242188 34.101562 -54.445312 33.4375 -47.3125 L 33.4375 0 L 14.21875 0 L 14.21875 -88.953125 L 33.4375 -88.953125 L 33.4375 -71.890625 C 39.457031 -83.710938 50.382812 -89.625 66.21875 -89.625 Z M 66.21875 -89.625 "/></g></g></g><g fill="#000000" fill-opacity="1"><g transform="translate(1076.245267, 259.058654)"><g/></g></g><g fill="#000000" fill-opacity="1"><g transform="translate(1119.381633, 259.058654)"><g><path d="M 95.3125 -99.3125 L 58.1875 -99.3125 L 58.1875 0 L 38.453125 0 L 38.453125 -99.3125 L 1.5 -99.3125 L 1.5 -117.046875 L 95.3125 -117.046875 Z M 95.3125 -99.3125 "/></g></g></g><g fill="#000000" fill-opacity="1"><g transform="translate(1216.187575, 259.058654)"><g><path d="M 52.328125 -89.625 C 66.046875 -89.625 77.195312 -85.46875 85.78125 -77.15625 C 94.363281 -68.851562 98.65625 -57.957031 98.65625 -44.46875 C 98.65625 -31.09375 94.363281 -20.222656 85.78125 -11.859375 C 77.195312 -3.503906 66.046875 0.671875 52.328125 0.671875 C 38.503906 0.671875 27.300781 -3.503906 18.71875 -11.859375 C 10.144531 -20.222656 5.859375 -31.09375 5.859375 -44.46875 C 5.859375 -57.957031 10.144531 -68.851562 18.71875 -77.15625 C 27.300781 -85.46875 38.503906 -89.625 52.328125 -89.625 Z M 52.328125 -73.0625 C 44.304688 -73.0625 37.757812 -70.382812 32.6875 -65.03125 C 27.613281 -59.6875 25.078125 -52.78125 25.078125 -44.3125 C 25.078125 -35.726562 27.613281 -28.757812 32.6875 -23.40625 C 37.757812 -18.050781 44.304688 -15.375 52.328125 -15.375 C 60.359375 -15.375 66.878906 -18.050781 71.890625 -23.40625 C 76.910156 -28.757812 79.421875 -35.726562 79.421875 -44.3125 C 79.421875 -52.78125 76.882812 -59.6875 71.8125 -65.03125 C 66.738281 -70.382812 60.242188 -73.0625 52.328125 -73.0625 Z M 52.328125 -73.0625 "/></g></g></g><g fill="#000000" fill-opacity="1"><g transform="translate(1320.684525, 259.058654)"><g><path d="M 67.546875 0 L 67.546875 -10.875 C 61.191406 -3.0625 51.382812 0.84375 38.125 0.84375 C 28.644531 0.84375 21.0625 -1.75 15.375 -6.9375 C 9.695312 -12.125 6.859375 -18.726562 6.859375 -26.75 C 6.859375 -34.882812 9.8125 -41.347656 15.71875 -46.140625 C 21.625 -50.941406 29.875 -53.394531 40.46875 -53.5 L 67.390625 -53.5 L 67.390625 -56.1875 C 67.390625 -61.863281 65.578125 -66.265625 61.953125 -69.390625 C 58.328125 -72.515625 53.054688 -74.078125 46.140625 -74.078125 C 37.554688 -74.078125 28.804688 -71.066406 19.890625 -65.046875 L 12.03125 -78.421875 C 18.832031 -82.429688 24.9375 -85.300781 30.34375 -87.03125 C 35.75 -88.757812 42.410156 -89.625 50.328125 -89.625 C 61.703125 -89.625 70.507812 -86.863281 76.75 -81.34375 C 82.988281 -75.820312 86.164062 -68.160156 86.28125 -58.359375 L 86.4375 0 Z M 42.140625 -14.375 C 48.929688 -14.375 54.695312 -15.960938 59.4375 -19.140625 C 64.175781 -22.316406 66.828125 -26.359375 67.390625 -31.265625 L 67.390625 -39.453125 L 43.3125 -39.453125 C 36.957031 -39.453125 32.300781 -38.53125 29.34375 -36.6875 C 26.382812 -34.851562 24.90625 -31.820312 24.90625 -27.59375 C 24.90625 -23.570312 26.4375 -20.363281 29.5 -17.96875 C 32.570312 -15.570312 36.785156 -14.375 42.140625 -14.375 Z M 42.140625 -14.375 "/></g></g></g><g fill="#000000" fill-opacity="1"><g transform="translate(1418.660844, 259.058654)"><g><path d="M 40.796875 -89.78125 C 53.054688 -89.78125 63.421875 -86.773438 71.890625 -80.765625 L 64.875 -66.546875 C 56.40625 -71.785156 47.878906 -74.40625 39.296875 -74.40625 C 30.597656 -74.40625 26.25 -71.453125 26.25 -65.546875 C 26.25 -62.648438 27.863281 -60.253906 31.09375 -58.359375 C 34.332031 -56.460938 38.265625 -54.875 42.890625 -53.59375 C 47.515625 -52.3125 52.140625 -50.804688 56.765625 -49.078125 C 61.390625 -47.347656 65.316406 -44.53125 68.546875 -40.625 C 71.785156 -36.726562 73.40625 -31.769531 73.40625 -25.75 C 73.40625 -17.164062 70.144531 -10.613281 63.625 -6.09375 C 57.101562 -1.582031 48.992188 0.671875 39.296875 0.671875 C 32.609375 0.671875 26.054688 -0.414062 19.640625 -2.59375 C 13.234375 -4.769531 7.859375 -7.804688 3.515625 -11.703125 L 10.359375 -25.421875 C 14.148438 -22.078125 18.804688 -19.398438 24.328125 -17.390625 C 29.847656 -15.378906 35.113281 -14.375 40.125 -14.375 C 44.476562 -14.375 47.988281 -15.15625 50.65625 -16.71875 C 53.332031 -18.28125 54.671875 -20.675781 54.671875 -23.90625 C 54.671875 -27.25 53.054688 -29.925781 49.828125 -31.9375 C 46.597656 -33.945312 42.695312 -35.5625 38.125 -36.78125 C 33.550781 -38.007812 28.976562 -39.457031 24.40625 -41.125 C 19.84375 -42.800781 15.972656 -45.5625 12.796875 -49.40625 C 9.617188 -53.25 8.03125 -58.125 8.03125 -64.03125 C 8.03125 -72.507812 11.175781 -78.921875 17.46875 -83.265625 C 23.769531 -87.609375 31.546875 -89.78125 40.796875 -89.78125 Z M 40.796875 -89.78125 "/></g></g></g><g fill="#000000" fill-opacity="1"><g transform="translate(1497.242568, 259.058654)"><g><path d="M 59.6875 -20.40625 L 64.546875 -5.6875 C 57.179688 -1.332031 49.875 0.84375 42.625 0.84375 C 35.382812 0.84375 29.421875 -1.328125 24.734375 -5.671875 C 20.054688 -10.023438 17.71875 -16.492188 17.71875 -25.078125 L 17.71875 -71.234375 L 5.1875 -71.234375 L 5.1875 -85.609375 L 17.71875 -85.609375 L 17.71875 -110.015625 L 36.78125 -110.015625 L 36.78125 -85.609375 L 63.03125 -85.609375 L 63.03125 -71.234375 L 36.78125 -71.234375 L 36.78125 -28.59375 C 36.78125 -24.132812 37.5625 -21.007812 39.125 -19.21875 C 40.6875 -17.4375 43.082031 -16.546875 46.3125 -16.546875 C 49.882812 -16.546875 54.34375 -17.832031 59.6875 -20.40625 Z M 59.6875 -20.40625 "/></g></g></g><g fill="#000000" fill-opacity="1"><g transform="translate(1565.290993, 259.058654)"><g><path d="M 130.25 -89.625 C 140.394531 -89.625 148.363281 -86.554688 154.15625 -80.421875 C 159.957031 -74.296875 162.859375 -65.9375 162.859375 -55.34375 L 162.859375 0 L 143.625 0 L 143.625 -50 C 143.625 -56.789062 141.753906 -62.109375 138.015625 -65.953125 C 134.285156 -69.804688 129.132812 -71.734375 122.5625 -71.734375 C 115.09375 -71.503906 109.15625 -68.796875 104.75 -63.609375 C 100.34375 -58.429688 98.140625 -51.882812 98.140625 -43.96875 L 98.140625 0 L 78.921875 0 L 78.921875 -50 C 78.921875 -56.789062 77.050781 -62.109375 73.3125 -65.953125 C 69.582031 -69.804688 64.484375 -71.734375 58.015625 -71.734375 C 50.441406 -71.503906 44.421875 -68.796875 39.953125 -63.609375 C 35.492188 -58.429688 33.265625 -51.882812 33.265625 -43.96875 L 33.265625 0 L 14.21875 0 L 14.21875 -88.953125 L 33.265625 -88.953125 L 33.265625 -71.734375 C 39.179688 -83.660156 49.941406 -89.625 65.546875 -89.625 C 73.460938 -89.625 80.066406 -87.753906 85.359375 -84.015625 C 90.648438 -80.285156 94.351562 -75.019531 96.46875 -68.21875 C 101.9375 -82.488281 113.195312 -89.625 130.25 -89.625 Z M 130.25 -89.625 "/></g></g></g><g fill="#000000" fill-opacity="1"><g transform="translate(1739.675492, 259.058654)"><g><path d="M 67.546875 0 L 67.546875 -10.875 C 61.191406 -3.0625 51.382812 0.84375 38.125 0.84375 C 28.644531 0.84375 21.0625 -1.75 15.375 -6.9375 C 9.695312 -12.125 6.859375 -18.726562 6.859375 -26.75 C 6.859375 -34.882812 9.8125 -41.347656 15.71875 -46.140625 C 21.625 -50.941406 29.875 -53.394531 40.46875 -53.5 L 67.390625 -53.5 L 67.390625 -56.1875 C 67.390625 -61.863281 65.578125 -66.265625 61.953125 -69.390625 C 58.328125 -72.515625 53.054688 -74.078125 46.140625 -74.078125 C 37.554688 -74.078125 28.804688 -71.066406 19.890625 -65.046875 L 12.03125 -78.421875 C 18.832031 -82.429688 24.9375 -85.300781 30.34375 -87.03125 C 35.75 -88.757812 42.410156 -89.625 50.328125 -89.625 C 61.703125 -89.625 70.507812 -86.863281 76.75 -81.34375 C 82.988281 -75.820312 86.164062 -68.160156 86.28125 -58.359375 L 86.4375 0 Z M 42.140625 -14.375 C 48.929688 -14.375 54.695312 -15.960938 59.4375 -19.140625 C 64.175781 -22.316406 66.828125 -26.359375 67.390625 -31.265625 L 67.390625 -39.453125 L 43.3125 -39.453125 C 36.957031 -39.453125 32.300781 -38.53125 29.34375 -36.6875 C 26.382812 -34.851562 24.90625 -31.820312 24.90625 -27.59375 C 24.90625 -23.570312 26.4375 -20.363281 29.5 -17.96875 C 32.570312 -15.570312 36.785156 -14.375 42.140625 -14.375 Z M 42.140625 -14.375 "/></g></g></g><g fill="#000000" fill-opacity="1"><g transform="translate(1837.651811, 259.058654)"><g><path d="M 40.796875 -89.78125 C 53.054688 -89.78125 63.421875 -86.773438 71.890625 -80.765625 L 64.875 -66.546875 C 56.40625 -71.785156 47.878906 -74.40625 39.296875 -74.40625 C 30.597656 -74.40625 26.25 -71.453125 26.25 -65.546875 C 26.25 -62.648438 27.863281 -60.253906 31.09375 -58.359375 C 34.332031 -56.460938 38.265625 -54.875 42.890625 -53.59375 C 47.515625 -52.3125 52.140625 -50.804688 56.765625 -49.078125 C 61.390625 -47.347656 65.316406 -44.53125 68.546875 -40.625 C 71.785156 -36.726562 73.40625 -31.769531 73.40625 -25.75 C 73.40625 -17.164062 70.144531 -10.613281 63.625 -6.09375 C 57.101562 -1.582031 48.992188 0.671875 39.296875 0.671875 C 32.609375 0.671875 26.054688 -0.414062 19.640625 -2.59375 C 13.234375 -4.769531 7.859375 -7.804688 3.515625 -11.703125 L 10.359375 -25.421875 C 14.148438 -22.078125 18.804688 -19.398438 24.328125 -17.390625 C 29.847656 -15.378906 35.113281 -14.375 40.125 -14.375 C 44.476562 -14.375 47.988281 -15.15625 50.65625 -16.71875 C 53.332031 -18.28125 54.671875 -20.675781 54.671875 -23.90625 C 54.671875 -27.25 53.054688 -29.925781 49.828125 -31.9375 C 46.597656 -33.945312 42.695312 -35.5625 38.125 -36.78125 C 33.550781 -38.007812 28.976562 -39.457031 24.40625 -41.125 C 19.84375 -42.800781 15.972656 -45.5625 12.796875 -49.40625 C 9.617188 -53.25 8.03125 -58.125 8.03125 -64.03125 C 8.03125 -72.507812 11.175781 -78.921875 17.46875 -83.265625 C 23.769531 -87.609375 31.546875 -89.78125 40.796875 -89.78125 Z M 40.796875 -89.78125 "/></g></g></g><g fill="#000000" fill-opacity="1"><g transform="translate(1916.233444, 259.058654)"><g><path d="M 59.6875 -20.40625 L 64.546875 -5.6875 C 57.179688 -1.332031 49.875 0.84375 42.625 0.84375 C 35.382812 0.84375 29.421875 -1.328125 24.734375 -5.671875 C 20.054688 -10.023438 17.71875 -16.492188 17.71875 -25.078125 L 17.71875 -71.234375 L 5.1875 -71.234375 L 5.1875 -85.609375 L 17.71875 -85.609375 L 17.71875 -110.015625 L 36.78125 -110.015625 L 36.78125 -85.609375 L 63.03125 -85.609375 L 63.03125 -71.234375 L 36.78125 -71.234375 L 36.78125 -28.59375 C 36.78125 -24.132812 37.5625 -21.007812 39.125 -19.21875 C 40.6875 -17.4375 43.082031 -16.546875 46.3125 -16.546875 C 49.882812 -16.546875 54.34375 -17.832031 59.6875 -20.40625 Z M 59.6875 -20.40625 "/></g></g></g><g fill="#000000" fill-opacity="1"><g transform="translate(1984.281778, 259.058654)"><g><path d="M 50.828125 -89.625 C 66.097656 -89.625 77.160156 -85.023438 84.015625 -75.828125 C 90.867188 -66.628906 93.6875 -53.726562 92.46875 -37.125 L 25.25 -37.125 C 26.8125 -30.207031 30.039062 -24.769531 34.9375 -20.8125 C 39.84375 -16.851562 45.8125 -14.875 52.84375 -14.875 C 62.875 -14.875 71.234375 -18.332031 77.921875 -25.25 L 88.109375 -14.375 C 78.972656 -4.34375 66.710938 0.671875 51.328125 0.671875 C 37.617188 0.671875 26.613281 -3.476562 18.3125 -11.78125 C 10.007812 -20.09375 5.859375 -30.9375 5.859375 -44.3125 C 5.859375 -57.6875 10.035156 -68.550781 18.390625 -76.90625 C 26.753906 -85.269531 37.566406 -89.507812 50.828125 -89.625 Z M 24.90625 -51.171875 L 75.75 -51.171875 C 75.40625 -58.296875 73.003906 -63.921875 68.546875 -68.046875 C 64.085938 -72.171875 58.238281 -74.234375 51 -74.234375 C 43.976562 -74.234375 38.148438 -72.171875 33.515625 -68.046875 C 28.890625 -63.921875 26.019531 -58.296875 24.90625 -51.171875 Z M 24.90625 -51.171875 "/></g></g></g><g fill="#000000" fill-opacity="1"><g transform="translate(2082.592516, 259.058654)"><g><path d="M 33.4375 -88.953125 L 33.4375 -71.234375 C 39.570312 -83.492188 49.828125 -89.625 64.203125 -89.625 L 64.203125 -71.234375 C 55.398438 -71.671875 48.265625 -69.601562 42.796875 -65.03125 C 37.335938 -60.46875 34.21875 -54.285156 33.4375 -46.484375 L 33.4375 0 L 14.21875 0 L 14.21875 -88.953125 Z M 33.4375 -88.953125 "/></g></g></g><g fill="#000000" fill-opacity="1"><g transform="translate(2148.467306, 259.058654)"><g><path d="M 40.796875 -89.78125 C 53.054688 -89.78125 63.421875 -86.773438 71.890625 -80.765625 L 64.875 -66.546875 C 56.40625 -71.785156 47.878906 -74.40625 39.296875 -74.40625 C 30.597656 -74.40625 26.25 -71.453125 26.25 -65.546875 C 26.25 -62.648438 27.863281 -60.253906 31.09375 -58.359375 C 34.332031 -56.460938 38.265625 -54.875 42.890625 -53.59375 C 47.515625 -52.3125 52.140625 -50.804688 56.765625 -49.078125 C 61.390625 -47.347656 65.316406 -44.53125 68.546875 -40.625 C 71.785156 -36.726562 73.40625 -31.769531 73.40625 -25.75 C 73.40625 -17.164062 70.144531 -10.613281 63.625 -6.09375 C 57.101562 -1.582031 48.992188 0.671875 39.296875 0.671875 C 32.609375 0.671875 26.054688 -0.414062 19.640625 -2.59375 C 13.234375 -4.769531 7.859375 -7.804688 3.515625 -11.703125 L 10.359375 -25.421875 C 14.148438 -22.078125 18.804688 -19.398438 24.328125 -17.390625 C 29.847656 -15.378906 35.113281 -14.375 40.125 -14.375 C 44.476562 -14.375 47.988281 -15.15625 50.65625 -16.71875 C 53.332031 -18.28125 54.671875 -20.675781 54.671875 -23.90625 C 54.671875 -27.25 53.054688 -29.925781 49.828125 -31.9375 C 46.597656 -33.945312 42.695312 -35.5625 38.125 -36.78125 C 33.550781 -38.007812 28.976562 -39.457031 24.40625 -41.125 C 19.84375 -42.800781 15.972656 -45.5625 12.796875 -49.40625 C 9.617188 -53.25 8.03125 -58.125 8.03125 -64.03125 C 8.03125 -72.507812 11.175781 -78.921875 17.46875 -83.265625 C 23.769531 -87.609375 31.546875 -89.78125 40.796875 -89.78125 Z M 40.796875 -89.78125 "/></g></g></g><g fill="#000000" fill-opacity="1"><g transform="translate(894.430763, 435.198571)"><g><path d="M 78.417969 -40.351562 C 78.941406 -49.414062 79.464844 -58.476562 79.980469 -67.644531 C 80.746094 -78.027344 81.621094 -88.414062 82.28125 -98.789062 C 82.476562 -100.871094 82.449219 -103.042969 82.316406 -105.210938 C 82.160156 -107.703125 80.898438 -108.710938 78.402344 -108.664062 C 76.335938 -108.644531 74.539062 -107.773438 73.226562 -106.167969 C 71.304688 -103.871094 69.378906 -101.578125 67.679688 -99.1875 C 56.09375 -82.582031 46.429688 -64.898438 38.785156 -46.148438 C 35.386719 -37.886719 32.097656 -29.523438 28.804688 -21.269531 C 27.960938 -19.148438 26.855469 -17.664062 24.632812 -16.65625 C 21.675781 -15.273438 18.726562 -13.675781 15.898438 -11.976562 C 12.746094 -10.148438 9.71875 -8.113281 6.800781 -6.082031 C 5.859375 -5.476562 4.824219 -4.652344 5.242188 -3.15625 C 7.078125 -1.636719 9.144531 -1.65625 11.261719 -2.550781 C 14.65625 -3.960938 17.820312 -5.570312 21.207031 -7.085938 C 21.84375 -7.34375 22.609375 -7.285156 23.675781 -7.566406 C 23.148438 -5.578125 22.6875 -4.242188 22.234375 -2.800781 C 20.742188 2.949219 19.035156 8.710938 17.761719 14.449219 C 17.070312 17.320312 16.933594 20.375 16.683594 23.328125 C 16.621094 24.09375 16.792969 25.0625 17.265625 25.683594 C 17.625 26.207031 18.523438 26.691406 19.285156 26.644531 C 19.722656 26.726562 20.441406 26.03125 20.632812 25.582031 C 21.152344 23.484375 21.234375 21.300781 21.972656 19.191406 C 24.96875 9.648438 28.179688 0.09375 31.277344 -9.566406 C 32.007812 -11.785156 33.34375 -13.066406 35.460938 -13.960938 C 45.527344 -18.285156 55.476562 -22.714844 65.542969 -27.039062 C 66.496094 -27.425781 67.679688 -27.609375 68.960938 -28.015625 C 69.070312 -26.28125 69.273438 -24.769531 69.253906 -23.355469 C 69.09375 -18.882812 69.046875 -14.421875 68.890625 -9.953125 C 68.402344 3.132812 68.453125 16.183594 69.699219 29.160156 C 70.042969 32.945312 70.710938 36.710938 71.382812 40.476562 C 71.699219 42.089844 72.234375 43.6875 72.980469 45.164062 C 73.859375 47.066406 75.457031 48.273438 77.632812 48.246094 C 79.921875 48.320312 81.714844 47.445312 82.859375 44.875 C 81.433594 44.636719 80.21875 44.386719 78.890625 44.035156 C 78.609375 42.964844 78.335938 42.109375 78.167969 41.140625 C 76.875 34.367188 76.457031 27.648438 76.578125 20.898438 C 76.886719 6.628906 77.199219 -7.53125 77.617188 -21.808594 C 77.628906 -25.074219 77.96875 -28.359375 78.199219 -31.636719 C 86.183594 -34.417969 93.621094 -37.273438 101.707031 -38.433594 C 101.660156 -39.191406 101.632812 -39.625 101.492188 -40.160156 C 101.355469 -40.585938 101.003906 -41 100.652344 -41.410156 C 93.203125 -42.253906 86.421875 -39.328125 78.789062 -37.875 C 78.605469 -39.058594 78.457031 -39.703125 78.417969 -40.351562 Z M 75.195312 -99.003906 C 75.214844 -93.457031 74.226562 -88.390625 73.675781 -83.242188 C 73.140625 -77.878906 72.613281 -72.40625 72.183594 -67.050781 C 71.648438 -61.6875 71.214844 -56.4375 70.78125 -51.1875 C 70.347656 -45.941406 70.128906 -40.707031 69.722656 -35.023438 C 64.417969 -32.84375 58.859375 -31.300781 53.4375 -29.222656 C 48.128906 -27.148438 42.820312 -25.078125 37.292969 -22.992188 C 39.828125 -36.421875 65.257812 -87.394531 75.195312 -99.003906 Z M 75.195312 -99.003906 "/></g></g></g><g fill="#000000" fill-opacity="1"><g transform="translate(1008.524598, 428.085341)"><g/></g></g><g fill="#000000" fill-opacity="1"><g transform="translate(1054.575008, 425.214308)"><g><path d="M 62.746094 -87.566406 C 65.082031 -90.210938 66.519531 -93.347656 67.171875 -96.871094 C 68.207031 -102.917969 64.328125 -107.570312 58.007812 -107.722656 C 53.871094 -107.789062 50.273438 -106.152344 47.292969 -103.355469 C 44.007812 -100.210938 41.292969 -96.671875 38.914062 -92.933594 C 34.757812 -86.363281 31.050781 -79.496094 28.015625 -72.347656 C 17.453125 -48.082031 10.324219 -22.835938 5.519531 3.027344 C 4.53125 8.09375 4.089844 13.234375 4.847656 18.410156 C 5.488281 23.480469 8.007812 25.5 13.230469 25.5 C 16.59375 25.398438 19.792969 24.328125 22.496094 22.3125 C 25.191406 20.1875 27.878906 17.953125 30.222656 15.410156 C 33.683594 11.605469 36.914062 7.597656 40.039062 3.59375 C 47.46875 -6.332031 54.441406 -16.664062 60.277344 -27.691406 C 61.34375 -29.824219 62.625 -31.96875 63.207031 -34.835938 C 62.128906 -34.660156 61.140625 -34.816406 60.617188 -34.457031 C 59.792969 -33.75 59.09375 -32.730469 58.390625 -31.816406 C 56.398438 -28.863281 54.414062 -25.800781 52.320312 -22.734375 C 44.457031 -11.039062 36.363281 0.453125 26.777344 10.730469 C 23.613281 14.082031 19.988281 17.027344 16.589844 20.070312 C 15.863281 20.660156 14.894531 20.828125 14.050781 21.207031 C 12.398438 17.394531 12.011719 16.4375 12.25 13.269531 C 12.515625 8.792969 12.777344 4.316406 13.484375 -0.078125 C 17.054688 -21.296875 22.726562 -41.992188 30.5 -62.167969 C 34.15625 -71.53125 38.257812 -80.816406 43.710938 -89.316406 C 46.082031 -93.160156 48.804688 -96.59375 51.628906 -100.144531 C 52.941406 -101.75 54.472656 -103.367188 56.734375 -103.726562 C 58.738281 -102.980469 59.605469 -101.292969 59.929688 -99.574219 C 60.386719 -97.535156 60.519531 -95.367188 60.546875 -93.195312 C 60.566406 -91.128906 60.160156 -88.925781 59.707031 -85.742188 C 61.285156 -86.605469 62.246094 -86.882812 62.746094 -87.566406 Z M 62.746094 -87.566406 "/></g></g></g><g fill="#000000" fill-opacity="1"><g transform="translate(1125.004042, 420.823379)"><g><path d="M 8.789062 -26.546875 C 13.78125 -47.636719 19.996094 -68.363281 26.757812 -89.019531 C 28.953125 -95.683594 31.699219 -102.273438 34.109375 -108.949219 C 34.300781 -109.398438 34.15625 -109.933594 34.230469 -110.480469 C 31.679688 -111.300781 29.902344 -110.101562 28.828125 -108.1875 C 27.355469 -105.59375 26 -102.898438 24.871094 -100.105469 C 15.777344 -78.4375 8.683594 -56.128906 2.375 -33.433594 C -0.015625 -24.691406 -2.292969 -15.847656 -3.03125 -6.773438 C -3.242188 -3.171875 -3.230469 0.527344 -2.683594 4.082031 C -1.90625 9.582031 1.324219 12.535156 6.8125 13.28125 C 8.78125 13.484375 10.855469 13.574219 12.667969 13.027344 C 23.382812 10.398438 30.015625 3.351562 33.851562 -6.679688 C 33.84375 -6.789062 33.722656 -6.996094 33.714844 -7.105469 C 32.570312 -8.011719 31.390625 -7.722656 30.585938 -6.691406 C 29.671875 -5.65625 28.886719 -4.304688 28.09375 -3.058594 C 25.402344 0.917969 22.136719 4.386719 17.953125 7.039062 C 16.488281 8 14.808594 8.976562 13.210938 9.511719 C 9.488281 10.832031 7.570312 9.753906 6.261719 6.246094 C 5.09375 3.164062 5.011719 0.121094 5.140625 -3.039062 C 5.398438 -11.105469 6.878906 -18.8125 8.789062 -26.546875 Z M 8.789062 -26.546875 "/></g></g></g><g fill="#000000" fill-opacity="1"><g transform="translate(1175.063373, 417.702408)"><g><path d="M 42.65625 -18.976562 C 39.355469 -16.050781 36.066406 -13.019531 32.773438 -9.984375 C 32.152344 -9.511719 31.539062 -8.820312 30.523438 -9.410156 C 30.28125 -9.828125 30.039062 -10.25 30.011719 -10.683594 C 29.921875 -12.089844 29.839844 -13.390625 29.867188 -14.699219 C 29.882812 -17.960938 30.105469 -21.347656 30.011719 -24.605469 C 29.980469 -26.890625 28.828125 -27.90625 26.640625 -28.09375 C 24.566406 -28.183594 22.636719 -27.738281 21.214844 -26.125 C 20.097656 -24.859375 19.089844 -23.597656 18.085938 -22.230469 C 15.59375 -18.59375 13.105469 -14.851562 10.503906 -11.207031 C 8.804688 -8.816406 6.773438 -6.515625 4.84375 -4.328125 C 4.4375 -3.867188 3.578125 -3.703125 2.40625 -3.304688 C 2.519531 -4.945312 2.34375 -6.019531 2.601562 -7.125 C 3.46875 -12.398438 4.453125 -17.574219 5.328125 -22.742188 C 5.632812 -24.828125 6.371094 -26.941406 5.699219 -28.964844 C 3.695312 -29.710938 2.78125 -28.675781 2.320312 -27.339844 C -0.390625 -20.210938 -2.4375 -12.902344 -3.269531 -5.34375 C -3.671875 -1.292969 -1.707031 0.542969 2.398438 0.0664062 C 3.800781 -0.128906 5.304688 -0.4375 6.5625 -1.171875 C 8.242188 -2.144531 9.910156 -3.335938 11.230469 -4.832031 C 14.175781 -8.171875 16.890625 -11.714844 19.722656 -15.152344 C 20.53125 -16.183594 21.226562 -17.207031 22.746094 -19.039062 C 22.671875 -16.75 22.644531 -15.445312 22.71875 -14.253906 C 22.695312 -12.835938 22.667969 -11.53125 22.859375 -10.238281 C 23.5625 -5.929688 26.40625 -3.929688 30.699219 -4.851562 C 31.988281 -5.148438 33.261719 -5.664062 34.304688 -6.382812 C 39.28125 -10.28125 43.683594 -14.691406 47.042969 -20.121094 C 47.34375 -20.574219 47.300781 -21.222656 47.351562 -22.207031 C 44.984375 -21.734375 43.996094 -20.148438 42.65625 -18.976562 Z M 42.65625 -18.976562 "/></g></g></g><g fill="#000000" fill-opacity="1"><g transform="translate(1230.431824, 414.250437)"><g><path d="M 40.179688 -30.789062 C 38.589844 -33.625 35.628906 -33.984375 32.796875 -34.027344 C 29.527344 -34.148438 26.65625 -33.101562 23.695312 -31.71875 C 18.203125 -29.089844 13.441406 -25.203125 9.152344 -20.695312 C 8.230469 -19.769531 7.207031 -18.726562 6.1875 -17.683594 C 8.191406 -29.121094 11.316406 -40.085938 13.890625 -51.125 C 16.460938 -62.269531 19.144531 -73.316406 21.605469 -84.457031 C 24.0625 -95.597656 26.640625 -106.636719 28.765625 -117.863281 C 26.871094 -118.617188 25.476562 -118.3125 24.703125 -116.738281 C 24.019531 -115.5 23.457031 -114.050781 23.113281 -112.617188 C 21.296875 -106.847656 19.488281 -100.96875 17.902344 -94.996094 C 11.660156 -71.21875 5.417969 -47.441406 -0.816406 -23.554688 C -3.535156 -13.050781 -6.242188 -2.4375 -8.953125 8.171875 C -9.386719 9.941406 -10.046875 11.613281 -9.171875 13.40625 C -4.066406 15.046875 -2.25 14.5 0 10.441406 C 1.367188 7.964844 2.402344 5.398438 3.65625 2.816406 C 4.617188 0.800781 5.6875 -1.226562 6.359375 -2.679688 C 9.773438 -3.765625 12.5625 -4.375 15.101562 -5.511719 C 21.023438 -8.273438 26.792969 -11.679688 31.976562 -15.808594 C 34.453125 -17.921875 36.695312 -20.34375 38.816406 -22.980469 C 40.53125 -25.152344 41.660156 -27.945312 40.179688 -30.789062 Z M 32.050781 -26.800781 C 31.542969 -24.484375 30.027344 -22.648438 28.386719 -21.023438 C 23.765625 -16.601562 18.417969 -13.441406 13.28125 -10.292969 C 11.617188 -10.839844 11.554688 -11.816406 12.144531 -12.832031 C 12.625 -13.839844 13.332031 -14.753906 14.035156 -15.667969 C 18.667969 -21.613281 24.242188 -26.421875 31.835938 -30.269531 C 31.9375 -28.644531 32.214844 -27.679688 32.050781 -26.800781 Z M 32.050781 -26.800781 "/></g></g></g><g fill="#000000" fill-opacity="1"><g transform="translate(1285.69191, 410.805223)"><g/></g></g><g fill="#000000" fill-opacity="1"><g transform="translate(1331.742331, 407.934189)"><g><path d="M 11.628906 -3.664062 C 17.089844 -24.234375 23.65625 -44.550781 30.777344 -64.6875 C 34.945312 -76.367188 39.226562 -87.949219 43.394531 -99.628906 C 43.929688 -101.511719 44.902344 -103.3125 44.21875 -105.554688 C 41.992188 -106.394531 40.191406 -105.628906 39.113281 -103.714844 C 37.628906 -101.335938 36.261719 -98.859375 35.226562 -96.292969 C 31.824219 -88.03125 28.421875 -79.769531 25.246094 -71.410156 C 17.398438 -50.6875 10.441406 -29.695312 5.371094 -8.058594 C 3.933594 -1.441406 2.171875 5.195312 2.164062 12.046875 C 2.144531 13.464844 1.445312 14.488281 0.53125 15.523438 C -0.699219 16.6875 -2.257812 17.871094 -2.441406 20.167969 C -1.324219 20.640625 -0.410156 21.347656 0.679688 21.386719 C 2.097656 21.40625 3.605469 21.207031 4.988281 20.683594 C 8.285156 19.5 10.628906 16.960938 13.441406 14.933594 C 29.777344 3.039062 46.71875 -7.917969 65.234375 -16.25 C 65.65625 -16.496094 66.0625 -16.953125 66.792969 -17.4375 C 63.035156 -18.398438 61.714844 -18.640625 58.3125 -17.34375 C 53.75 -15.535156 49.074219 -13.71875 44.761719 -11.382812 C 34.335938 -5.839844 24.152344 0.015625 13.949219 5.65625 C 12.589844 6.503906 11.113281 7.25 8.59375 8.710938 C 9.804688 3.738281 10.660156 -0.0117188 11.628906 -3.664062 Z M 11.628906 -3.664062 "/></g></g></g><g fill="#000000" fill-opacity="1"><g transform="translate(1415.389973, 402.71914)"><g><path d="M 34.972656 -30.574219 C 32.859375 -29.570312 32.417969 -27.910156 31.632812 -26.558594 C 26.761719 -19.183594 20.847656 -12.832031 13.554688 -7.699219 C 11.574219 -6.269531 9.597656 -4.839844 6.683594 -4.441406 C 6.183594 -5.5 5.582031 -6.441406 5.40625 -7.515625 C 5.324219 -8.816406 5.460938 -10.128906 5.703125 -11.453125 C 6.828125 -16.089844 7.953125 -20.730469 9.1875 -25.375 C 9.527344 -26.917969 10.296875 -28.488281 9.980469 -30.101562 C 6.214844 -31.171875 5.144531 -30.886719 3.6875 -28.078125 C 0.984375 -22.578125 -1.046875 -16.796875 -2.085938 -10.75 C -2.152344 -10.089844 -2.21875 -9.433594 -2.289062 -8.777344 C -2.605469 -3.425781 -0.15625 -0.75 5.277344 -0.871094 C 9.082031 -0.890625 12.378906 -2.078125 15.507812 -4.230469 C 22.695312 -9.355469 28.722656 -15.605469 33.019531 -23.488281 C 33.898438 -25.066406 34.558594 -26.738281 35.097656 -28.511719 C 35.289062 -28.960938 35.03125 -29.597656 34.972656 -30.574219 Z M 11.402344 -40.417969 C 11.917969 -40.882812 12.324219 -41.34375 12.617188 -41.90625 C 13.273438 -43.578125 13.824219 -45.246094 14.675781 -47.257812 C 11.589844 -47.933594 8.996094 -47.664062 6.589844 -46.097656 C 4.707031 -44.894531 4.210938 -42.359375 5.28125 -40.90625 C 6.703125 -39.035156 9.65625 -38.785156 11.402344 -40.417969 Z M 11.402344 -40.417969 "/></g></g></g><g fill="#000000" fill-opacity="1"><g transform="translate(1458.948337, 400.003475)"><g><path d="M 6.148438 -33.996094 C 6.453125 -36.082031 7.441406 -37.667969 8.871094 -39.171875 C 17.65625 -48.3125 25.066406 -58.566406 31.558594 -69.628906 C 37.347656 -79.671875 41.453125 -90.589844 43.78125 -102.15625 C 44.605469 -106.339844 44.992188 -110.609375 44.296875 -114.808594 C 43.226562 -121.484375 38.378906 -124.226562 32.453125 -121.574219 C 30.121094 -120.558594 28.28125 -118.703125 26.667969 -116.644531 C 23.347656 -112.304688 20.375 -107.660156 18.191406 -102.519531 C 15.917969 -97.15625 13.652344 -91.574219 11.824219 -86.023438 C 6.683594 -70.796875 3.753906 -54.953125 1.488281 -38.929688 C -0.492188 -25.316406 -2.253906 -11.714844 -4.117188 1.996094 C -4.191406 2.546875 -4.042969 3.1875 -3.910156 3.617188 C -2.535156 4.726562 -1.125 4.640625 0.0351562 4.023438 C 0.976562 3.421875 1.664062 2.289062 2.253906 1.273438 C 3.140625 -0.195312 3.570312 -2.070312 5.003906 -3.464844 C 5.257812 -2.9375 5.609375 -2.523438 5.742188 -2.097656 C 6.921875 2.832031 9.15625 7.261719 11.808594 11.449219 C 15.558594 17.523438 19.414062 23.484375 23.375 29.4375 C 24.824219 31.738281 26.589844 33.914062 28.460938 35.972656 C 29.515625 37.210938 30.78125 38.332031 32.148438 39.332031 C 34.203125 40.835938 36.496094 41.019531 38.78125 39.246094 C 36.910156 38.925781 35.753906 37.800781 34.691406 36.453125 C 33.742188 35.207031 32.792969 33.960938 31.953125 32.710938 C 26.292969 23.925781 21.046875 14.789062 16.421875 5.175781 C 15.542969 3.273438 14.757812 1.148438 13.980469 -0.871094 C 11.75 -6.933594 12.617188 -12.207031 17.238281 -16.628906 C 19.082031 -18.484375 21.046875 -20.132812 22.894531 -21.878906 C 24.859375 -23.523438 26.824219 -25.167969 28.558594 -27.019531 C 29.789062 -28.183594 30.792969 -29.550781 31.792969 -30.917969 C 32.492188 -31.941406 33.074219 -33.066406 32.34375 -34.324219 C 31.714844 -35.699219 30.398438 -35.835938 29.214844 -35.652344 C 27.378906 -35.429688 25.441406 -35.089844 23.75 -34.332031 C 22.050781 -33.683594 20.59375 -32.613281 19.136719 -31.542969 C 14.347656 -28.089844 10.371094 -23.816406 6.753906 -19.023438 C 6.144531 -18.332031 5.421875 -17.742188 4.5 -16.816406 C 4.332031 -17.785156 4.195312 -18.210938 4.277344 -18.652344 C 4.824219 -23.796875 5.484375 -28.953125 6.148438 -33.996094 Z M 7.503906 -43.652344 C 10.160156 -60.355469 13.597656 -76.777344 19.351562 -92.691406 C 21.769531 -99.261719 24.417969 -105.625 28.191406 -111.410156 C 29.484375 -113.339844 30.894531 -115.167969 32.300781 -116.996094 C 33.210938 -118.140625 34.21875 -119.398438 35.945312 -119.617188 C 37.652344 -118.417969 38.097656 -116.488281 38.335938 -114.433594 C 38.804688 -110.441406 38.28125 -106.597656 37.542969 -102.746094 C 35.707031 -93.820312 32.976562 -85.273438 29.242188 -77.101562 C 23.984375 -65.460938 17.359375 -54.820312 10.28125 -44.480469 C 9.785156 -43.6875 9.175781 -42.996094 8.558594 -42.414062 C 8.355469 -42.183594 8.023438 -42.273438 7.589844 -42.246094 C 7.566406 -42.679688 7.421875 -43.214844 7.503906 -43.652344 Z M 25.867188 -30.003906 C 23.816406 -26.285156 21 -24.371094 17.949219 -22.65625 C 20.429688 -26.511719 22.175781 -28.144531 25.867188 -30.003906 Z M 25.867188 -30.003906 "/></g></g></g><g fill="#000000" fill-opacity="1"><g transform="translate(1503.806913, 397.206747)"><g><path d="M 36.386719 -20.109375 C 35.667969 -19.410156 34.832031 -18.816406 34.238281 -17.90625 C 30.113281 -12.539062 25.039062 -8.414062 19.355469 -5.339844 C 17.460938 -4.351562 15.320312 -3.785156 13.171875 -3.324219 C 10.910156 -2.964844 8.988281 -4.148438 7.660156 -6.242188 C 6.460938 -8.019531 5.574219 -10.027344 5.941406 -12.878906 C 10.28125 -14.78125 13.703125 -17.496094 16.515625 -21.261719 C 17.828125 -22.867188 19.015625 -24.792969 19.652344 -26.789062 C 20.835938 -30.453125 19.457031 -33.414062 16.21875 -34.734375 C 12.210938 -36.222656 8.566406 -35.34375 5.734375 -31.902344 C 1.175781 -26.507812 -1.464844 -20.03125 -1.433594 -12.527344 C -1.347656 -5.898438 2.078125 -1.542969 7.820312 -0.160156 C 12.5625 0.847656 17.101562 0.347656 21.40625 -2.097656 C 26.140625 -4.675781 30.382812 -8.203125 34.019531 -12.671875 C 35.125 -14.15625 36.105469 -15.847656 36.972656 -17.644531 C 37.375 -18.210938 37.203125 -19.179688 37.265625 -19.945312 C 36.710938 -20.128906 36.488281 -20.222656 36.386719 -20.109375 Z M 12.5625 -30.589844 C 13.617188 -29.351562 13.273438 -27.914062 12.703125 -26.574219 C 11.375 -23.445312 9.585938 -20.722656 6.796875 -18.371094 C 7.296875 -24.277344 9.03125 -27.867188 12.5625 -30.589844 Z M 12.5625 -30.589844 "/></g></g></g><g fill="#000000" fill-opacity="1"><g transform="translate(1548.882176, 394.39651)"><g/></g></g><g fill="#000000" fill-opacity="1"><g transform="translate(1594.932597, 391.525476)"><g><path d="M 18.082031 -31.042969 C 18.738281 -32.714844 19.179688 -34.375 19.84375 -35.9375 C 23.445312 -44.429688 26.941406 -52.914062 30.4375 -61.402344 C 32.140625 -65.53125 33.617188 -69.757812 34.984375 -73.976562 C 35.628906 -75.867188 36.046875 -77.851562 36.257812 -79.714844 C 36.691406 -83.222656 35.289062 -84.765625 31.804688 -84.875 C 29.296875 -84.9375 27.175781 -84.042969 25.4375 -82.300781 C 24.507812 -81.484375 23.703125 -80.453125 23.003906 -79.429688 C 15.613281 -68.851562 8.90625 -57.773438 3.441406 -46.011719 C 2.011719 -42.769531 0.921875 -39.328125 -0.0625 -35.894531 C -0.503906 -34.234375 -0.273438 -32.292969 -0.164062 -30.558594 C -0.144531 -30.230469 0.546875 -29.621094 0.980469 -29.648438 C 1.527344 -29.574219 2.265625 -29.949219 2.789062 -30.304688 C 3 -30.429688 3.1875 -30.875 3.277344 -31.207031 C 6.867188 -41.65625 12.820312 -50.839844 18.777344 -60.023438 C 19.269531 -60.8125 19.988281 -61.511719 20.597656 -62.203125 C 20.40625 -60.015625 19.757812 -58.234375 19 -56.445312 C 14.460938 -45.503906 9.8125 -34.550781 5.382812 -23.613281 C 4.242188 -20.933594 3.4375 -18.164062 2.847656 -15.40625 C 2.167969 -12.320312 3.230469 -10.972656 6.300781 -10.617188 C 7.832031 -10.496094 9.558594 -10.710938 11.0625 -11.023438 C 13.316406 -11.492188 14.847656 -13.109375 16.269531 -14.722656 C 20.617188 -19.996094 25.199219 -25.066406 29.316406 -30.546875 C 41.46875 -46.75 53.503906 -63.058594 65.765625 -79.269531 C 69.984375 -84.863281 74.660156 -90.15625 79.226562 -95.445312 C 80.34375 -96.710938 81.332031 -98.296875 83.585938 -98.761719 C 83.546875 -97.671875 83.492188 -96.800781 83.324219 -96.027344 C 82.054688 -91.921875 81.011719 -87.726562 79.414062 -83.710938 C 76.234375 -75.351562 72.726562 -67.082031 69.441406 -58.71875 C 64.46875 -46.007812 59.15625 -33.496094 54.628906 -20.59375 C 49.453125 -5.910156 45.171875 9.148438 42.65625 24.644531 C 42.09375 27.835938 41.753906 31.121094 41.949219 34.261719 C 42.289062 39.679688 45.550781 41.433594 50.535156 39.382812 C 50.957031 39.140625 51.484375 38.890625 51.898438 38.535156 C 52.101562 38.304688 52.183594 37.867188 52.269531 37.535156 C 51.050781 37.175781 49.722656 36.824219 48.398438 36.46875 C 48.429688 35.273438 48.269531 34.410156 48.429688 33.53125 C 49.503906 28.023438 50.25 22.539062 51.765625 17.222656 C 56.339844 -0.140625 62.464844 -17.058594 69.035156 -33.785156 C 74.964844 -48.621094 81.226562 -63.371094 87.046875 -78.203125 C 89.300781 -83.890625 91.003906 -89.761719 92.816406 -95.53125 C 93.265625 -97.082031 93.597656 -98.734375 93.605469 -100.367188 C 93.765625 -104.730469 92.027344 -106.46875 87.550781 -106.734375 C 84.386719 -106.863281 81.386719 -106.132812 78.882812 -104.453125 C 76.484375 -102.78125 74.203125 -101.007812 72.035156 -99.132812 C 64.320312 -92.015625 57.976562 -83.785156 51.761719 -75.347656 C 41.328125 -61.210938 31.003906 -47.078125 20.578125 -32.828125 C 19.96875 -32.140625 19.46875 -31.457031 18.859375 -30.765625 C 18.636719 -30.859375 18.304688 -30.949219 18.082031 -31.042969 Z M 18.082031 -31.042969 "/></g></g></g><g fill="#000000" fill-opacity="1"><g transform="translate(1688.548421, 385.688956)"><g><path d="M 25.101562 -12.660156 C 23.082031 -11.882812 21.0625 -11.105469 18.734375 -11.828125 C 19.285156 -13.496094 19.730469 -15.046875 20.183594 -16.488281 C 21.261719 -20.144531 22.121094 -23.789062 21.996094 -27.585938 C 21.90625 -32.476562 19.890625 -35.179688 16.394531 -35.398438 C 15.414062 -35.445312 14.445312 -35.277344 13.484375 -35 C 10.488281 -34.160156 8.011719 -32.046875 5.789062 -29.296875 C 3.464844 -26.433594 1.820312 -23.175781 2.191406 -18.957031 C 1.121094 -16.929688 0.0429688 -15.015625 -0.925781 -13.105469 C -1.96875 -10.648438 -3.003906 -8.078125 -3.261719 -5.234375 C -3.5625 -1.300781 -2.425781 1.238281 0.339844 1.9375 C 1.996094 2.378906 3.839844 2.261719 5.445312 1.835938 C 8.019531 1.242188 10.292969 -0.640625 12.328125 -2.945312 C 13.957031 -4.675781 15.585938 -6.519531 17.414062 -8.589844 C 24.660156 -9.261719 25.511719 -9.53125 28.054688 -12.410156 C 26.367188 -13.285156 26.367188 -13.285156 25.101562 -12.660156 Z M 3.34375 -0.425781 C 2.269531 -0.25 1.363281 -0.847656 1.265625 -2.363281 C 1.070312 -3.765625 1.085938 -5.289062 1.320312 -6.71875 C 1.90625 -9.582031 2.710938 -12.351562 4.28125 -15.0625 C 5.878906 -13.855469 7.03125 -12.839844 8.285156 -11.9375 C 9.53125 -11.144531 10.886719 -10.359375 12.238281 -9.574219 C 10.632812 -5.667969 6.128906 -1.144531 3.34375 -0.425781 Z M 14.523438 -13.089844 C 11.839844 -14.226562 10.101562 -15.96875 9.132812 -19.28125 C 8.578125 -21.203125 8.484375 -22.71875 9.242188 -24.507812 C 10.867188 -28.089844 12.96875 -31.050781 15.925781 -32.429688 C 17.382812 -31.761719 17.707031 -30.039062 17.808594 -28.414062 C 18.152344 -22.886719 16.949219 -17.808594 14.523438 -13.089844 Z M 14.523438 -13.089844 "/></g></g></g><g fill="#000000" fill-opacity="1"><g transform="translate(1726.364291, 383.331309)"><g/></g></g><g fill="#000000" fill-opacity="1"><g transform="translate(1772.414713, 380.460276)"><g><path d="M 86.621094 -91.992188 C 83.890625 -97.367188 79.585938 -100.144531 73.496094 -100.09375 C 72.082031 -100.113281 70.570312 -99.910156 69.066406 -99.597656 C 62.953125 -98.238281 57.832031 -94.875 53.429688 -90.464844 C 42.789062 -79.683594 34.96875 -67.230469 30.4375 -52.699219 C 29.636719 -49.820312 28.390625 -47.132812 26.804688 -44.640625 C 18.109375 -30.609375 11.753906 -15.636719 7.523438 0.292969 C 6.210938 5.378906 5.652344 10.417969 6.519531 15.585938 C 7.390625 20.859375 10.535156 24.144531 15.730469 25.453125 C 17.71875 25.980469 19.898438 26.0625 22.074219 26.035156 C 26.964844 25.949219 31.425781 24.257812 35.742188 21.921875 C 43.207031 17.757812 49.5 12.253906 55.195312 5.914062 C 70.347656 -11.023438 80.65625 -30.59375 86.6875 -52.507812 C 89 -60.808594 90.316406 -69.375 89.773438 -78.046875 C 89.476562 -82.8125 88.964844 -87.566406 86.621094 -91.992188 Z M 28.46875 -23.203125 C 30.59375 -17.027344 35.035156 -13.824219 41.28125 -13.125 C 45.988281 -12.65625 50.621094 -13.382812 54.851562 -15.277344 C 55.273438 -15.519531 55.570312 -15.972656 56.296875 -16.5625 C 55.402344 -16.941406 54.710938 -17.550781 54.0625 -17.511719 C 52.21875 -17.398438 50.5 -17.074219 48.667969 -16.742188 C 43.625 -15.664062 40.265625 -17.195312 38.234375 -21.855469 C 37.46875 -23.65625 37.015625 -25.695312 36.894531 -27.644531 C 36.144531 -34.453125 37.464844 -41.171875 39.34375 -47.707031 C 39.429688 -48.039062 39.84375 -48.390625 40.554688 -49.195312 C 40.5 -46.582031 40.519531 -44.515625 40.464844 -41.902344 C 41.515625 -42.511719 42.152344 -42.769531 42.449219 -43.222656 C 44.746094 -46.519531 46.035156 -50.300781 46.878906 -54.160156 C 47.382812 -56.582031 46.914062 -57.097656 43.8125 -59.734375 C 43.894531 -60.171875 43.859375 -60.714844 44.050781 -61.164062 C 48.347656 -70.785156 53.777344 -79.609375 60.679688 -87.546875 C 63.222656 -90.421875 66.003906 -92.882812 69.480469 -94.730469 C 72.222656 -96.097656 73.542969 -95.851562 75.4375 -93.359375 C 77.699219 -90.238281 78.796875 -86.609375 79.367188 -82.726562 C 80.265625 -75.277344 79.859375 -67.855469 78.246094 -60.574219 C 72.566406 -34.765625 61.042969 -11.964844 42.535156 7.03125 C 38.34375 11.316406 33.683594 15.085938 28.535156 18.019531 C 27.488281 18.628906 26.546875 19.230469 25.488281 19.730469 C 21.890625 21.371094 20.109375 20.71875 18.460938 16.90625 C 17.824219 15.421875 17.503906 13.8125 17.296875 12.191406 C 16.847656 8.523438 17.277344 4.90625 18.027344 1.269531 C 19.964844 -7.773438 22.898438 -16.546875 26.390625 -25.140625 C 26.476562 -25.472656 26.796875 -25.601562 27.507812 -26.410156 C 27.914062 -25.128906 28.082031 -24.160156 28.46875 -23.203125 Z M 28.46875 -23.203125 "/></g></g></g><g fill="#000000" fill-opacity="1"><g transform="translate(1871.66471, 374.272491)"><g><path d="M 52.566406 -72.898438 C 48.859375 -72.992188 45.265625 -73.09375 41.59375 -72.648438 C 33.589844 -71.933594 25.496094 -70.882812 17.503906 -69.949219 C 16.421875 -69.882812 15.324219 -70.03125 14.015625 -70.058594 C 14.59375 -73.03125 15.082031 -75.671875 15.574219 -78.207031 C 16.070312 -80.738281 17.445312 -83.109375 17.160156 -85.917969 C 14.492188 -86.839844 12.703125 -85.859375 11.75 -83.734375 C 10.605469 -81.160156 9.683594 -78.492188 8.871094 -75.828125 C 8.253906 -73.507812 7.75 -71.082031 7.148438 -68.542969 C 4.035156 -67.914062 1.128906 -67.40625 -1.769531 -66.789062 C -6.714844 -65.828125 -11.550781 -64.875 -16.371094 -63.703125 C -18.195312 -63.265625 -20.246094 -63.027344 -21.425781 -60.996094 C -18.738281 -59.75 -18.738281 -59.75 -17.234375 -60.0625 C -10.351562 -61.359375 -3.578125 -62.652344 3.191406 -63.945312 C 4.054688 -64.109375 5.046875 -63.84375 6.140625 -63.800781 C 5.914062 -62.15625 5.671875 -60.835938 5.421875 -59.625 C 2.378906 -43.878906 -0.441406 -28.039062 -2.613281 -12.238281 C -4.28125 -0.601562 -5.839844 11.023438 -6.410156 22.808594 C -6.417969 24.441406 -6.316406 26.066406 -6.105469 27.683594 C -5.949219 28.4375 -5.464844 29.277344 -4.066406 28.972656 C -3.824219 27.652344 -3.472656 26.324219 -3.234375 24.894531 C -2.875 21.9375 -2.515625 18.976562 -2.15625 16.015625 C 1.851562 -10.449219 7.726562 -36.597656 12.613281 -62.902344 C 12.769531 -63.890625 13.265625 -64.683594 13.644531 -65.574219 C 27.539062 -67.746094 41.09375 -70.222656 55.015625 -71.960938 C 54.230469 -72.347656 53.324219 -72.945312 52.566406 -72.898438 Z M 52.566406 -72.898438 "/></g></g></g><g fill="#000000" fill-opacity="1"><g transform="translate(1901.571036, 372.407968)"><g><path d="M 24.445312 -115.636719 C 22.902344 -115.976562 21.5 -115.777344 20.957031 -114.003906 C 20.414062 -112.230469 19.980469 -110.460938 19.546875 -108.695312 C 17.007812 -98.855469 14.472656 -88.90625 11.832031 -78.953125 C 5.570312 -55.5 -0.808594 -32.148438 -7.070312 -8.695312 C -7.523438 -7.253906 -7.863281 -5.710938 -8.097656 -4.28125 C -8.316406 -2.527344 -7.613281 -1.699219 -5.960938 -1.367188 C -3.433594 -0.984375 -1.308594 -1.769531 0.296875 -3.933594 C 2.59375 -7.234375 4.890625 -10.53125 7.296875 -13.835938 C 10.40625 -18.054688 13.628906 -22.171875 16.738281 -26.390625 C 17.246094 -26.964844 17.875 -27.332031 19.226562 -28.394531 C 18.195312 -23.980469 17.429688 -20.558594 16.667969 -17.03125 C 15.132812 -10.296875 14.683594 -3.527344 15.542969 3.273438 C 15.773438 5.21875 16.21875 7.148438 16.875 8.957031 C 17.269531 10.019531 17.984375 11.0625 18.695312 11.996094 C 19.984375 13.441406 21.75 13.875 23.585938 13.648438 C 25.101562 13.554688 26.730469 13.453125 27.597656 11.660156 C 23.628906 10.820312 23.390625 10.507812 22.835938 6.84375 C 22.652344 5.660156 22.570312 4.359375 22.496094 3.167969 C 22.160156 -2.25 22.914062 -7.628906 23.882812 -13.019531 C 24.785156 -17.753906 25.683594 -22.488281 26.476562 -27.214844 C 26.703125 -28.859375 26.808594 -30.609375 26.707031 -32.234375 C 26.648438 -34.949219 25.613281 -35.863281 22.882812 -36.019531 C 20.160156 -36.066406 17.933594 -35.167969 16.097656 -33.203125 C 12.636719 -29.398438 9.28125 -25.597656 5.929688 -21.800781 C 5.023438 -20.65625 4.113281 -19.511719 2.601562 -17.566406 C 2.808594 -19.539062 2.855469 -20.519531 3.117188 -21.515625 C 5.644531 -31.574219 8.175781 -41.628906 10.808594 -51.691406 C 15.03125 -67.730469 19.476562 -83.671875 22.703125 -99.972656 C 23.550781 -103.832031 24.179688 -107.679688 24.917969 -111.53125 C 25.054688 -112.847656 25.507812 -114.289062 24.445312 -115.636719 Z M 24.445312 -115.636719 "/></g></g></g><g fill="#000000" fill-opacity="1"><g transform="translate(1945.237767, 369.685546)"><g><path d="M 36.386719 -20.109375 C 35.667969 -19.410156 34.832031 -18.816406 34.238281 -17.90625 C 30.113281 -12.539062 25.039062 -8.414062 19.355469 -5.339844 C 17.460938 -4.351562 15.320312 -3.785156 13.171875 -3.324219 C 10.910156 -2.964844 8.988281 -4.148438 7.660156 -6.242188 C 6.460938 -8.019531 5.574219 -10.027344 5.941406 -12.878906 C 10.28125 -14.78125 13.703125 -17.496094 16.515625 -21.261719 C 17.828125 -22.867188 19.015625 -24.792969 19.652344 -26.789062 C 20.835938 -30.453125 19.457031 -33.414062 16.21875 -34.734375 C 12.210938 -36.222656 8.566406 -35.34375 5.734375 -31.902344 C 1.175781 -26.507812 -1.464844 -20.03125 -1.433594 -12.527344 C -1.347656 -5.898438 2.078125 -1.542969 7.820312 -0.160156 C 12.5625 0.847656 17.101562 0.347656 21.40625 -2.097656 C 26.140625 -4.675781 30.382812 -8.203125 34.019531 -12.671875 C 35.125 -14.15625 36.105469 -15.847656 36.972656 -17.644531 C 37.375 -18.210938 37.203125 -19.179688 37.265625 -19.945312 C 36.710938 -20.128906 36.488281 -20.222656 36.386719 -20.109375 Z M 12.5625 -30.589844 C 13.617188 -29.351562 13.273438 -27.914062 12.703125 -26.574219 C 11.375 -23.445312 9.585938 -20.722656 6.796875 -18.371094 C 7.296875 -24.277344 9.03125 -27.867188 12.5625 -30.589844 Z M 12.5625 -30.589844 "/></g></g></g><g fill="#000000" fill-opacity="1"><g transform="translate(1990.312984, 366.875312)"><g><path d="M 29.835938 -32.644531 C 28.902344 -35.414062 27.089844 -36.609375 24.175781 -36.207031 C 21.914062 -35.851562 20.125 -34.867188 18.71875 -33.039062 C 16.210938 -29.621094 13.710938 -26.09375 11.097656 -22.664062 C 10.5 -21.757812 9.796875 -20.84375 8.480469 -19.238281 C 8.542969 -25.226562 11.085938 -29.84375 11.078125 -35.175781 C 8.863281 -35.796875 7.582031 -35.390625 6.8125 -33.820312 C 6.222656 -32.804688 5.746094 -31.6875 5.375 -30.683594 C 2.507812 -22.566406 -0.355469 -14.445312 -3.222656 -6.324219 C -3.683594 -4.992188 -4.027344 -3.554688 -4.265625 -2.128906 C -4.667969 0.183594 -3.5 1.414062 -1.117188 1.265625 C 0.507812 1.164062 2.105469 0.628906 3.21875 -0.746094 C 4.542969 -2.132812 5.867188 -3.628906 6.957031 -5.328125 C 9.253906 -8.625 11.21875 -12.011719 13.40625 -15.304688 C 16.085938 -19.386719 18.878906 -23.476562 21.777344 -27.574219 C 22.375 -28.480469 23.199219 -29.1875 24.332031 -30.234375 C 24.972656 -28.644531 25.480469 -27.480469 25.882812 -26.308594 C 26.265625 -25.351562 26.4375 -24.382812 27.03125 -23.550781 C 27.390625 -23.027344 28.292969 -22.542969 28.949219 -22.472656 C 29.273438 -22.492188 29.984375 -23.300781 30.167969 -23.855469 C 30.851562 -26.835938 30.671875 -29.761719 29.835938 -32.644531 Z M 29.835938 -32.644531 "/></g></g></g><g fill="#000000" fill-opacity="1"><g transform="translate(2040.263949, 363.761097)"><g><path d="M 37.207031 -129.050781 C 36.257812 -128.554688 35.566406 -127.425781 35.195312 -126.421875 C 34.445312 -124.527344 33.910156 -122.644531 33.488281 -120.660156 C 30.492188 -107.636719 27.382812 -94.714844 24.5 -81.589844 C 20.179688 -61.957031 15.636719 -42.3125 12.53125 -22.320312 C 11.589844 -16.496094 10.871094 -10.578125 11.132812 -4.609375 C 11.230469 -3.09375 11.324219 -1.578125 11.738281 -0.1875 C 11.878906 0.347656 12.785156 0.941406 13.449219 1.121094 C 14.003906 1.300781 14.859375 1.03125 15.265625 0.570312 C 15.679688 0.21875 15.847656 -0.554688 15.921875 -1.101562 C 16.246094 -4.601562 16.464844 -8.097656 16.90625 -11.496094 C 18.816406 -24.453125 21.832031 -37.152344 24.632812 -49.835938 C 30.089844 -74 35.433594 -98.15625 40.882812 -122.425781 C 41.296875 -124.519531 41.71875 -126.503906 41.480469 -128.554688 C 39.984375 -129.875 38.46875 -129.78125 37.207031 -129.050781 Z M 6.574219 12.96875 C 5.847656 13.558594 6.363281 14.832031 7.371094 15.3125 C 9.398438 16.382812 11.566406 16.25 13.71875 15.898438 C 17.164062 15.355469 18.082031 14.320312 18.175781 10.617188 C 18.25 10.066406 18.210938 9.417969 18.164062 8.65625 C 17.269531 8.277344 16.484375 7.890625 15.722656 7.941406 C 11.679688 7.648438 9.25 10.519531 6.574219 12.96875 Z M 6.574219 12.96875 "/></g></g></g></svg>